<svg width="40" height="36" viewBox="0 0 40 36" fill="none" xmlns="http://www.w3.org/2000/svg">
<path d="M24.1663 30.5019C20.188 30.3914 16.4166 28.705 13.6817 25.8139C10.9468 22.9227 9.47243 19.0635 9.58294 15.0852C9.69345 11.107 11.3798 7.33556 14.271 4.60066C17.1622 1.86575 21.0214 0.39138 24.9996 0.501886C19.3829 6.77689 23.6913 17.1686 32.4996 17.1686C34.9545 17.1884 37.3297 16.2977 39.1663 14.6686C39.2797 16.7074 38.9757 18.7479 38.2728 20.665C37.57 22.5822 36.4831 24.3357 35.0787 25.8181C33.6744 27.3004 31.9822 28.4805 30.1057 29.2859C28.2293 30.0912 26.2082 30.505 24.1663 30.5019Z" fill="#FCD240"/>
<path d="M32.4995 28.0037C32.4995 29.9929 31.7094 31.9005 30.3028 33.307C28.8963 34.7136 26.9887 35.5037 24.9995 35.5037H8.33287C6.34375 35.5689 4.4102 34.8413 2.95757 33.4809C1.50494 32.1204 0.652239 30.2387 0.58704 28.2496C0.521841 26.2604 1.24949 24.3269 2.60991 22.8743C3.97033 21.4216 5.85208 20.5689 7.84121 20.5037C8.38187 18.5793 9.53676 16.8843 11.1299 15.6771C12.7231 14.4698 14.6673 13.8164 16.6662 13.8164C18.6651 13.8164 20.6093 14.4698 22.2025 15.6771C23.7957 16.8843 24.9505 18.5793 25.4912 20.5037C27.3939 20.6287 29.1776 21.4737 30.4794 22.867C31.7813 24.2602 32.5036 26.0969 32.4995 28.0037Z" fill="url(#paint0_linear_29229_1484)"/>
<defs>
<linearGradient id="paint0_linear_29229_1484" x1="16.6662" y1="35.5037" x2="16.6662" y2="13.8371" gradientUnits="userSpaceOnUse">
<stop stop-color="#D3E6F5"/>
<stop offset="1" stop-color="#F0F7FC"/>
</linearGradient>
</defs>
</svg>
