<svg width="40" height="30" viewBox="0 0 40 30" fill="none" xmlns="http://www.w3.org/2000/svg">
<path d="M39.1659 11.6658C39.1659 13.2129 38.5513 14.6966 37.4573 15.7905C36.3634 16.8845 34.8796 17.4991 33.3325 17.4991H21.6659C20.1842 17.4838 18.7638 16.9053 17.6931 15.8809C16.6225 14.8565 15.9818 13.463 15.9012 11.9834C15.8206 10.5038 16.3061 9.04899 17.2591 7.91434C18.2121 6.77968 19.5612 6.05023 21.0325 5.87409C21.3938 4.43258 22.2264 3.1531 23.398 2.23889C24.5696 1.32467 26.0131 0.828125 27.4992 0.828125C28.9853 0.828125 30.4288 1.32467 31.6004 2.23889C32.772 3.1531 33.6046 4.43258 33.9659 5.87409C35.3936 6.03002 36.7136 6.70716 37.6731 7.77583C38.6326 8.84449 39.1641 10.2296 39.1659 11.6658Z" fill="url(#paint0_linear_29229_1560)"/>
<path d="M32.4995 21.6639C32.4995 23.653 31.7094 25.5607 30.3028 26.9672C28.8963 28.3737 26.9887 29.1639 24.9995 29.1639H8.33287C6.34375 29.2291 4.4102 28.5014 2.95757 27.141C1.50494 25.7806 0.652239 23.8988 0.58704 21.9097C0.521841 19.9206 1.24949 17.987 2.60991 16.5344C3.97033 15.0818 5.85208 14.2291 7.84121 14.1639C8.38187 12.2395 9.53676 10.5445 11.1299 9.33724C12.7231 8.12997 14.6673 7.47656 16.6662 7.47656C18.6651 7.47656 20.6093 8.12997 22.2025 9.33724C23.7957 10.5445 24.9505 12.2395 25.4912 14.1639C27.3939 14.2889 29.1776 15.1339 30.4794 16.5271C31.7813 17.9203 32.5036 19.7571 32.4995 21.6639Z" fill="url(#paint1_linear_29229_1560)"/>
<defs>
<linearGradient id="paint0_linear_29229_1560" x1="23.5909" y1="15.5741" x2="37.6742" y2="1.49076" gradientUnits="userSpaceOnUse">
<stop stop-color="#D3E6F5"/>
<stop offset="0.38" stop-color="#DAEAF7"/>
<stop offset="0.94" stop-color="#EDF6FB"/>
<stop offset="1" stop-color="#F0F7FC"/>
</linearGradient>
<linearGradient id="paint1_linear_29229_1560" x1="16.6662" y1="29.1639" x2="16.6662" y2="7.49722" gradientUnits="userSpaceOnUse">
<stop stop-color="#D3E6F5"/>
<stop offset="1" stop-color="#F0F7FC"/>
</linearGradient>
</defs>
</svg>
