<svg width="40" height="40" viewBox="0 0 40 40" fill="none" xmlns="http://www.w3.org/2000/svg">
<path d="M39.1667 16.6654C38.4854 16.307 37.8857 15.8116 37.405 15.2104C36.9244 14.6091 36.5733 13.915 36.3737 13.1715C36.1741 12.4281 36.1305 11.6514 36.2454 10.8903C36.3604 10.1292 36.6315 9.40004 37.0417 8.7487C36.2698 8.78386 35.4991 8.65845 34.7782 8.38038C34.0573 8.10232 33.402 7.67767 32.8537 7.13329C32.3054 6.58891 31.8761 5.93665 31.5929 5.21779C31.3096 4.49893 31.1787 3.72911 31.2083 2.95703C30.5585 3.36029 29.8328 3.62576 29.0761 3.73696C28.3195 3.84817 27.5481 3.80274 26.8097 3.6035C26.0713 3.40426 25.3818 3.05545 24.7838 2.5787C24.1858 2.10196 23.6921 1.50745 23.3333 0.832031C22.975 1.51327 22.4796 2.11304 21.8783 2.59368C21.2771 3.07432 20.5829 3.42545 19.8395 3.625C19.0961 3.82455 18.3194 3.86823 17.5583 3.75328C16.7971 3.63833 16.068 3.36724 15.4167 2.95703C15.4518 3.72887 15.3264 4.49961 15.0484 5.22049C14.7703 5.94136 14.3456 6.59668 13.8013 7.14498C13.2569 7.69327 12.6046 8.12261 11.8858 8.40584C11.1669 8.68906 10.3971 8.82 9.625 8.79037C10.0283 9.44018 10.2937 10.1659 10.4049 10.9226C10.5161 11.6792 10.4707 12.4506 10.2715 13.189C10.0722 13.9274 9.72342 14.6169 9.24667 15.2149C8.76993 15.8129 8.17542 16.3066 7.5 16.6654C8.18124 17.0237 8.78101 17.5191 9.26165 18.1204C9.74229 18.7216 10.0934 19.4158 10.293 20.1592C10.4925 20.9026 10.5362 21.6793 10.4212 22.4404C10.3063 23.2016 10.0352 23.9307 9.625 24.582C10.4005 24.5465 11.1749 24.673 11.8987 24.9536C12.6226 25.2341 13.2799 25.6626 13.8289 26.2115C14.3778 26.7604 14.8062 27.4178 15.0868 28.1416C15.3674 28.8655 15.4939 29.6399 15.4583 30.4154C16.1056 30.0105 16.829 29.7427 17.5839 29.6285C18.3387 29.5143 19.109 29.5561 19.8471 29.7514C20.5851 29.9466 21.2753 30.2912 21.8749 30.7637C22.4746 31.2362 22.9709 31.8267 23.3333 32.4987C23.6917 31.8175 24.1871 31.2177 24.7883 30.737C25.3896 30.2564 26.0837 29.9053 26.8272 29.7057C27.5706 29.5062 28.3473 29.4625 29.1084 29.5775C29.8695 29.6924 30.5987 29.9635 31.25 30.3737C31.2144 29.5982 31.341 28.8238 31.6215 28.1C31.9021 27.3761 32.3305 26.7188 32.8795 26.1698C33.4284 25.6209 34.0858 25.1925 34.8096 24.9119C35.5334 24.6313 36.3078 24.5048 37.0833 24.5404C36.6785 23.8931 36.4107 23.1697 36.2965 22.4148C36.1823 21.66 36.2241 20.8897 36.4193 20.1516C36.6146 19.4136 36.9591 18.7234 37.4317 18.1238C37.9042 17.5241 38.4947 17.0278 39.1667 16.6654Z" fill="#FCD240"/>
<path d="M23.3327 25.8333C28.3953 25.8333 32.4993 21.7293 32.4993 16.6667C32.4993 11.6041 28.3953 7.5 23.3327 7.5C18.2701 7.5 14.166 11.6041 14.166 16.6667C14.166 21.7293 18.2701 25.8333 23.3327 25.8333Z" fill="#FEE98C"/>
<path d="M32.4995 28.3319C32.4995 30.321 31.7094 32.2286 30.3028 33.6352C28.8963 35.0417 26.9887 35.8319 24.9995 35.8319H8.33287C6.34375 35.8971 4.4102 35.1694 2.95757 33.809C1.50494 32.4486 0.652239 30.5668 0.58704 28.5777C0.521841 26.5886 1.24949 24.655 2.60991 23.2024C3.97033 21.7498 5.85208 20.8971 7.84121 20.8319C8.38187 18.9074 9.53676 17.2125 11.1299 16.0052C12.7231 14.7979 14.6673 14.1445 16.6662 14.1445C18.6651 14.1445 20.6093 14.7979 22.2025 16.0052C23.7957 17.2125 24.9505 18.9074 25.4912 20.8319C27.3939 20.9568 29.1776 21.8019 30.4794 23.1951C31.7813 24.5883 32.5036 26.4251 32.4995 28.3319Z" fill="url(#paint0_linear_29229_1488)"/>
<path d="M11.6663 34.9987C11.6663 34.7777 11.7541 34.5657 11.9104 34.4094C12.0667 34.2532 12.2787 34.1654 12.4997 34.1654H14.9997C15.4417 34.1654 15.8656 33.9898 16.1782 33.6772C16.4907 33.3646 16.6663 32.9407 16.6663 32.4987C16.6663 32.0567 16.4907 31.6327 16.1782 31.3202C15.8656 31.0076 15.4417 30.832 14.9997 30.832H2.49967C2.05765 30.832 1.63372 31.0076 1.32116 31.3202C1.0086 31.6327 0.833008 32.0567 0.833008 32.4987C0.833008 32.9407 1.0086 33.3646 1.32116 33.6772C1.63372 33.9898 2.05765 34.1654 2.49967 34.1654H3.33301C3.55402 34.1654 3.76598 34.2532 3.92226 34.4094C4.07854 34.5657 4.16634 34.7777 4.16634 34.9987C4.16634 35.2197 4.07854 35.4317 3.92226 35.588C3.76598 35.7442 3.55402 35.832 3.33301 35.832C2.89098 35.832 2.46706 36.0076 2.1545 36.3202C1.84194 36.6327 1.66634 37.0567 1.66634 37.4987C1.66634 37.9407 1.84194 38.3646 2.1545 38.6772C2.46706 38.9898 2.89098 39.1654 3.33301 39.1654H19.9997C20.4417 39.1654 20.8656 38.9898 21.1782 38.6772C21.4907 38.3646 21.6663 37.9407 21.6663 37.4987C21.6663 37.0567 21.4907 36.6327 21.1782 36.3202C20.8656 36.0076 20.4417 35.832 19.9997 35.832H12.4997C12.2787 35.832 12.0667 35.7442 11.9104 35.588C11.7541 35.4317 11.6663 35.2197 11.6663 34.9987Z" fill="#B4CDE1"/>
<path d="M28.3327 38.3307H24.9993C24.7783 38.3307 24.5664 38.2429 24.4101 38.0867C24.2538 37.9304 24.166 37.7184 24.166 37.4974C24.166 37.2764 24.2538 37.0644 24.4101 36.9081C24.5664 36.7519 24.7783 36.6641 24.9993 36.6641H28.3327C28.5537 36.6641 28.7657 36.7519 28.9219 36.9081C29.0782 37.0644 29.166 37.2764 29.166 37.4974C29.166 37.7184 29.0782 37.9304 28.9219 38.0867C28.7657 38.2429 28.5537 38.3307 28.3327 38.3307Z" fill="#B4CDE1"/>
<path d="M21.666 33.3307H19.9993C19.7783 33.3307 19.5664 33.2429 19.4101 33.0867C19.2538 32.9304 19.166 32.7184 19.166 32.4974C19.166 32.2764 19.2538 32.0644 19.4101 31.9081C19.5664 31.7519 19.7783 31.6641 19.9993 31.6641H21.666C21.887 31.6641 22.099 31.7519 22.2553 31.9081C22.4116 32.0644 22.4993 32.2764 22.4993 32.4974C22.4993 32.7184 22.4116 32.9304 22.2553 33.0867C22.099 33.2429 21.887 33.3307 21.666 33.3307Z" fill="#B4CDE1"/>
<defs>
<linearGradient id="paint0_linear_29229_1488" x1="16.6662" y1="35.8319" x2="16.6662" y2="14.1652" gradientUnits="userSpaceOnUse">
<stop stop-color="#D3E6F5"/>
<stop offset="1" stop-color="#F0F7FC"/>
</linearGradient>
</defs>
</svg>
