<svg width="40" height="40" viewBox="0 0 40 40" fill="none" xmlns="http://www.w3.org/2000/svg">
<path d="M13.3327 25.832H19.166L18.3327 29.9987H21.666L14.166 39.1654V33.332H11.666L13.3327 25.832Z" fill="#FCD240"/>
<path d="M39.1659 11.6658C39.1659 13.2129 38.5513 14.6966 37.4573 15.7905C36.3634 16.8845 34.8796 17.4991 33.3325 17.4991H21.6659C20.1842 17.4838 18.7638 16.9053 17.6931 15.8809C16.6225 14.8565 15.9818 13.463 15.9012 11.9834C15.8206 10.5038 16.3061 9.04899 17.2591 7.91433C18.2121 6.77968 19.5612 6.05023 21.0325 5.87409C21.3938 4.43258 22.2264 3.1531 23.398 2.23889C24.5696 1.32467 26.0131 0.828125 27.4992 0.828125C28.9853 0.828125 30.4288 1.32467 31.6004 2.23889C32.772 3.1531 33.6046 4.43258 33.9659 5.87409C35.3936 6.03002 36.7136 6.70716 37.6731 7.77583C38.6326 8.84449 39.1641 10.2296 39.1659 11.6658Z" fill="#B4CDE1"/>
<path d="M32.4995 20.8319C32.4995 22.821 31.7094 24.7286 30.3028 26.1352C28.8963 27.5417 26.9887 28.3319 24.9995 28.3319H8.33287C6.34375 28.3971 4.4102 27.6694 2.95757 26.309C1.50494 24.9486 0.652239 23.0668 0.58704 21.0777C0.521841 19.0886 1.24949 17.155 2.60991 15.7024C3.97033 14.2498 5.85208 13.3971 7.84121 13.3319C8.38187 11.4074 9.53676 9.71247 11.1299 8.5052C12.7231 7.29794 14.6673 6.64453 16.6662 6.64453C18.6651 6.64453 20.6093 7.29794 22.2025 8.5052C23.7957 9.71247 24.9505 11.4074 25.4912 13.3319C27.3939 13.4568 29.1776 14.3019 30.4794 15.6951C31.7813 17.0883 32.5036 18.9251 32.4995 20.8319Z" fill="url(#paint0_linear_29229_1456)"/>
<path d="M1.66654 35.0007C1.53404 35.0011 1.40336 34.9698 1.28535 34.9096C1.16735 34.8493 1.06541 34.7617 0.988012 34.6542C0.91061 34.5466 0.85997 34.4222 0.840294 34.2912C0.820617 34.1601 0.832472 34.0263 0.874874 33.9007L1.70821 31.4007C1.74323 31.2968 1.79838 31.2007 1.87052 31.1181C1.94266 31.0354 2.03037 30.9678 2.12864 30.919C2.22692 30.8703 2.33383 30.8414 2.44328 30.834C2.55274 30.8265 2.66258 30.8407 2.76654 30.8757C2.8705 30.9108 2.96655 30.9659 3.0492 31.038C3.13185 31.1102 3.19948 31.1979 3.24823 31.2962C3.29698 31.3944 3.3259 31.5014 3.33333 31.6108C3.34076 31.7203 3.32656 31.8301 3.29154 31.9341L2.45821 34.4341C2.4023 34.5996 2.29579 34.7434 2.15373 34.845C2.01167 34.9467 1.84124 35.0012 1.66654 35.0007Z" fill="#54A5FF"/>
<path d="M4.16661 39.1648C4.03064 39.172 3.89496 39.1458 3.77145 39.0885C3.64795 39.0311 3.54038 38.9444 3.45815 38.8359C3.37593 38.7273 3.32155 38.6003 3.29978 38.4659C3.27801 38.3314 3.28951 38.1937 3.33328 38.0648L4.16661 35.5648C4.20163 35.4608 4.25678 35.3648 4.32892 35.2821C4.40106 35.1995 4.48877 35.1319 4.58705 35.0831C4.68532 35.0344 4.79224 35.0054 4.90169 34.998C5.01114 34.9906 5.12098 35.0048 5.22495 35.0398C5.32891 35.0748 5.42496 35.13 5.5076 35.2021C5.59025 35.2743 5.65788 35.362 5.70663 35.4602C5.75538 35.5585 5.7843 35.6654 5.79173 35.7749C5.79916 35.8843 5.78496 35.9942 5.74995 36.0981L4.91661 38.5981C4.86314 38.7571 4.76295 38.8962 4.62914 38.9973C4.49533 39.0984 4.33413 39.1568 4.16661 39.1648Z" fill="#8AD3FE"/>
<path d="M8.33256 35.0007C8.20005 35.0011 8.06938 34.9698 7.95137 34.9096C7.83336 34.8493 7.73143 34.7617 7.65403 34.6542C7.57663 34.5466 7.52599 34.4222 7.50631 34.2912C7.48663 34.1601 7.49849 34.0263 7.54089 33.9007L8.37422 31.4007C8.40924 31.2968 8.4644 31.2007 8.53653 31.1181C8.60867 31.0354 8.69638 30.9678 8.79466 30.919C8.89293 30.8703 8.99985 30.8414 9.1093 30.834C9.21875 30.8265 9.32859 30.8407 9.43256 30.8757C9.53652 30.9108 9.63257 30.9659 9.71522 31.038C9.79786 31.1102 9.86549 31.1979 9.91424 31.2962C9.963 31.3944 9.99191 31.5014 9.99934 31.6108C10.0068 31.7203 9.99258 31.8301 9.95756 31.9341L9.12422 34.4341C9.06832 34.5996 8.96181 34.7434 8.81975 34.845C8.67769 34.9467 8.50726 35.0012 8.33256 35.0007Z" fill="#54A5FF"/>
<path d="M22.4995 35.0007C22.367 35.0011 22.2364 34.9698 22.1184 34.9096C22.0004 34.8493 21.8984 34.7617 21.821 34.6542C21.7436 34.5466 21.693 34.4222 21.6733 34.2912C21.6536 34.1601 21.6655 34.0263 21.7079 33.9007L22.5412 31.4007C22.5762 31.2968 22.6314 31.2007 22.7035 31.1181C22.7757 31.0354 22.8634 30.9678 22.9617 30.919C23.0599 30.8703 23.1668 30.8414 23.2763 30.834C23.3857 30.8265 23.4956 30.8407 23.5995 30.8757C23.7035 30.9108 23.7996 30.9659 23.8822 31.038C23.9649 31.1102 24.0325 31.1979 24.0812 31.2962C24.13 31.3944 24.1589 31.5014 24.1663 31.6108C24.1738 31.7203 24.1596 31.8301 24.1245 31.9341L23.2912 34.4341C23.2353 34.5996 23.1288 34.7434 22.9867 34.845C22.8447 34.9467 22.6743 35.0012 22.4995 35.0007Z" fill="#54A5FF"/>
<path d="M24.9995 39.1648C24.867 39.1651 24.7364 39.1339 24.6184 39.0736C24.5004 39.0133 24.3984 38.9258 24.321 38.8183C24.2436 38.7107 24.193 38.5863 24.1733 38.4552C24.1536 38.3242 24.1655 38.1903 24.2079 38.0648L25.0412 35.5648C25.0762 35.4608 25.1314 35.3648 25.2035 35.2821C25.2757 35.1995 25.3634 35.1319 25.4617 35.0831C25.5599 35.0344 25.6668 35.0054 25.7763 34.998C25.8857 34.9906 25.9956 35.0048 26.0995 35.0398C26.2035 35.0748 26.2996 35.13 26.3822 35.2021C26.4649 35.2743 26.5325 35.362 26.5812 35.4602C26.63 35.5585 26.6589 35.6654 26.6663 35.7749C26.6738 35.8843 26.6596 35.9942 26.6245 36.0981L25.7912 38.5981C25.7353 38.7637 25.6288 38.9074 25.4867 39.0091C25.3447 39.1108 25.1743 39.1653 24.9995 39.1648Z" fill="#8AD3FE"/>
<path d="M29.1666 35.0007C29.0306 35.008 28.895 34.9818 28.7715 34.9244C28.648 34.8671 28.5404 34.7803 28.4582 34.6718C28.3759 34.5633 28.3215 34.4362 28.2998 34.3018C28.278 34.1674 28.2895 34.0297 28.3333 33.9007L29.1666 31.4007C29.2016 31.2968 29.2568 31.2007 29.3289 31.1181C29.4011 31.0354 29.4888 30.9678 29.587 30.919C29.6853 30.8703 29.7922 30.8414 29.9017 30.834C30.0111 30.8265 30.121 30.8407 30.2249 30.8757C30.3289 30.9108 30.425 30.9659 30.5076 31.038C30.5903 31.1102 30.6579 31.1979 30.7066 31.2962C30.7554 31.3944 30.7843 31.5014 30.7917 31.6108C30.7992 31.7203 30.785 31.8301 30.7499 31.9341L29.9166 34.4341C29.8631 34.593 29.7629 34.7321 29.6291 34.8332C29.4953 34.9343 29.3341 34.9927 29.1666 35.0007Z" fill="#54A5FF"/>
<defs>
<linearGradient id="paint0_linear_29229_1456" x1="16.6662" y1="28.3319" x2="16.6662" y2="6.66519" gradientUnits="userSpaceOnUse">
<stop stop-color="#D3E6F5"/>
<stop offset="1" stop-color="#F0F7FC"/>
</linearGradient>
</defs>
</svg>
