<svg width="40" height="40" viewBox="0 0 40 40" fill="none" xmlns="http://www.w3.org/2000/svg">
<path d="M39.1659 11.6658C39.1659 13.2129 38.5513 14.6966 37.4573 15.7905C36.3634 16.8845 34.8796 17.4991 33.3325 17.4991H21.6659C20.1842 17.4838 18.7638 16.9053 17.6931 15.8809C16.6225 14.8565 15.9818 13.463 15.9012 11.9834C15.8206 10.5038 16.3061 9.04899 17.2591 7.91433C18.2121 6.77968 19.5612 6.05023 21.0325 5.87409C21.3938 4.43258 22.2264 3.1531 23.398 2.23889C24.5696 1.32467 26.0131 0.828125 27.4992 0.828125C28.9853 0.828125 30.4288 1.32467 31.6004 2.23889C32.772 3.1531 33.6046 4.43258 33.9659 5.87409C35.3936 6.03002 36.7136 6.70716 37.6731 7.77583C38.6326 8.84449 39.1641 10.2296 39.1659 11.6658Z" fill="#B4CDE1"/>
<path d="M32.4995 21.6639C32.4995 23.653 31.7094 25.5607 30.3028 26.9672C28.8963 28.3737 26.9887 29.1639 24.9995 29.1639H8.33287C6.34375 29.2291 4.4102 28.5014 2.95757 27.141C1.50494 25.7806 0.652239 23.8988 0.58704 21.9097C0.521841 19.9206 1.24949 17.987 2.60991 16.5344C3.97033 15.0818 5.85208 14.2291 7.84121 14.1639C8.38187 12.2395 9.53676 10.5445 11.1299 9.33724C12.7231 8.12997 14.6673 7.47656 16.6662 7.47656C18.6651 7.47656 20.6093 8.12997 22.2025 9.33724C23.7957 10.5445 24.9505 12.2395 25.4912 14.1639C27.3939 14.2889 29.1776 15.1339 30.4794 16.5271C31.7813 17.9203 32.5036 19.7571 32.4995 21.6639Z" fill="url(#paint0_linear_29229_1496)"/>
<path d="M5.83263 35.0007C5.69665 35.008 5.56098 34.9818 5.43747 34.9244C5.31397 34.8671 5.20639 34.7803 5.12417 34.6718C5.04194 34.5633 4.98757 34.4362 4.9658 34.3018C4.94403 34.1674 4.95553 34.0297 4.99929 33.9007L5.83263 31.4007C5.86765 31.2968 5.9228 31.2007 5.99494 31.1181C6.06708 31.0354 6.15479 30.9678 6.25306 30.919C6.35134 30.8703 6.45825 30.8414 6.5677 30.834C6.67716 30.8265 6.787 30.8407 6.89096 30.8757C6.99492 30.9108 7.09097 30.9659 7.17362 31.038C7.25627 31.1102 7.3239 31.1979 7.37265 31.2962C7.4214 31.3944 7.45032 31.5014 7.45775 31.6108C7.46518 31.7203 7.45098 31.8301 7.41596 31.9341L6.58263 34.4341C6.52915 34.593 6.42896 34.7321 6.29515 34.8332C6.16134 34.9343 6.00014 34.9927 5.83263 35.0007Z" fill="#54A5FF"/>
<path d="M8.33256 39.1648C8.20005 39.1651 8.06938 39.1339 7.95137 39.0736C7.83336 39.0133 7.73143 38.9258 7.65403 38.8183C7.57663 38.7107 7.52599 38.5863 7.50631 38.4552C7.48663 38.3242 7.49849 38.1903 7.54089 38.0648L8.37422 35.5648C8.40924 35.4608 8.4644 35.3648 8.53653 35.2821C8.60867 35.1995 8.69638 35.1319 8.79466 35.0831C8.89293 35.0344 8.99985 35.0054 9.1093 34.998C9.21875 34.9906 9.32859 35.0048 9.43256 35.0398C9.53652 35.0748 9.63257 35.13 9.71522 35.2021C9.79786 35.2743 9.86549 35.362 9.91424 35.4602C9.963 35.5585 9.99191 35.6654 9.99934 35.7749C10.0068 35.8843 9.99258 35.9942 9.95756 36.0981L9.12422 38.5981C9.06832 38.7637 8.96181 38.9074 8.81975 39.0091C8.67769 39.1108 8.50726 39.1653 8.33256 39.1648Z" fill="#8AD3FE"/>
<path d="M14.9995 39.1648C14.867 39.1651 14.7364 39.1339 14.6184 39.0736C14.5004 39.0133 14.3984 38.9258 14.321 38.8183C14.2436 38.7107 14.193 38.5863 14.1733 38.4552C14.1536 38.3242 14.1655 38.1903 14.2079 38.0648L15.0412 35.5648C15.0762 35.4608 15.1314 35.3648 15.2035 35.2821C15.2757 35.1995 15.3634 35.1319 15.4617 35.0831C15.5599 35.0344 15.6668 35.0054 15.7763 34.998C15.8857 34.9906 15.9956 35.0048 16.0995 35.0398C16.2035 35.0748 16.2996 35.13 16.3822 35.2021C16.4649 35.2743 16.5325 35.362 16.5812 35.4602C16.63 35.5585 16.6589 35.6654 16.6663 35.7749C16.6738 35.8843 16.6596 35.9942 16.6245 36.0981L15.7912 38.5981C15.7353 38.7637 15.6288 38.9074 15.4867 39.0091C15.3447 39.1108 15.1743 39.1653 14.9995 39.1648Z" fill="#8AD3FE"/>
<path d="M21.6665 39.1648C21.534 39.1651 21.4034 39.1339 21.2854 39.0736C21.1673 39.0133 21.0654 38.9258 20.988 38.8183C20.9106 38.7107 20.86 38.5863 20.8403 38.4552C20.8206 38.3242 20.8325 38.1903 20.8749 38.0648L21.7082 35.5648C21.7789 35.3548 21.9302 35.1816 22.1286 35.0831C22.3271 34.9847 22.5566 34.9691 22.7665 35.0398C22.9765 35.1105 23.1498 35.2618 23.2482 35.4602C23.3467 35.6587 23.3623 35.8882 23.2915 36.0981L22.4582 38.5981C22.4023 38.7637 22.2958 38.9074 22.1537 39.0091C22.0117 39.1108 21.8412 39.1653 21.6665 39.1648Z" fill="#8AD3FE"/>
<path d="M12.4995 35.0007C12.367 35.0011 12.2364 34.9698 12.1184 34.9096C12.0004 34.8493 11.8984 34.7617 11.821 34.6542C11.7436 34.5466 11.693 34.4222 11.6733 34.2912C11.6536 34.1601 11.6655 34.0263 11.7079 33.9007L12.5412 31.4007C12.5762 31.2968 12.6314 31.2007 12.7035 31.1181C12.7757 31.0354 12.8634 30.9678 12.9617 30.919C13.0599 30.8703 13.1668 30.8414 13.2763 30.834C13.3857 30.8265 13.4956 30.8407 13.5995 30.8757C13.7035 30.9108 13.7996 30.9659 13.8822 31.038C13.9649 31.1102 14.0325 31.1979 14.0812 31.2962C14.13 31.3944 14.1589 31.5014 14.1663 31.6108C14.1738 31.7203 14.1596 31.8301 14.1245 31.9341L13.2912 34.4341C13.2353 34.5996 13.1288 34.7434 12.9867 34.845C12.8447 34.9467 12.6743 35.0012 12.4995 35.0007Z" fill="#54A5FF"/>
<path d="M19.1665 35.0007C19.034 35.0011 18.9034 34.9698 18.7854 34.9096C18.6673 34.8493 18.5654 34.7617 18.488 34.6542C18.4106 34.5466 18.36 34.4222 18.3403 34.2912C18.3206 34.1601 18.3325 34.0263 18.3749 33.9007L19.2082 31.4007C19.2432 31.2968 19.2984 31.2007 19.3705 31.1181C19.4427 31.0354 19.5304 30.9678 19.6286 30.919C19.7269 30.8703 19.8338 30.8414 19.9433 30.834C20.0527 30.8265 20.1626 30.8407 20.2665 30.8757C20.3705 30.9108 20.4666 30.9659 20.5492 31.038C20.6318 31.1102 20.6995 31.1979 20.7482 31.2962C20.797 31.3944 20.8259 31.5014 20.8333 31.6108C20.8408 31.7203 20.8266 31.8301 20.7915 31.9341L19.9582 34.4341C19.9023 34.5996 19.7958 34.7434 19.6537 34.845C19.5117 34.9467 19.3412 35.0012 19.1665 35.0007Z" fill="#54A5FF"/>
<path d="M25.8326 35.0007C25.7001 35.0011 25.5694 34.9698 25.4514 34.9096C25.3334 34.8493 25.2314 34.7617 25.154 34.6542C25.0766 34.5466 25.026 34.4222 25.0063 34.2912C24.9866 34.1601 24.9985 34.0263 25.0409 33.9007L25.8742 31.4007C25.9449 31.1908 26.0962 31.0175 26.2947 30.9191C26.4931 30.8206 26.7226 30.805 26.9326 30.8757C27.1425 30.9465 27.3158 31.0977 27.4142 31.2962C27.5127 31.4947 27.5283 31.7241 27.4576 31.9341L26.6242 34.4341C26.5683 34.5996 26.4618 34.7434 26.3197 34.845C26.1777 34.9467 26.0073 35.0012 25.8326 35.0007Z" fill="#54A5FF"/>
<defs>
<linearGradient id="paint0_linear_29229_1496" x1="16.6662" y1="29.1639" x2="16.6662" y2="7.49722" gradientUnits="userSpaceOnUse">
<stop stop-color="#D3E6F5"/>
<stop offset="1" stop-color="#F0F7FC"/>
</linearGradient>
</defs>
</svg>
