<svg width="40" height="40" viewBox="0 0 40 40" fill="none" xmlns="http://www.w3.org/2000/svg">
<path d="M19.9997 39.1654C30.5851 39.1654 39.1663 30.5842 39.1663 19.9987C39.1663 9.41324 30.5851 0.832031 19.9997 0.832031C9.41422 0.832031 0.833008 9.41324 0.833008 19.9987C0.833008 30.5842 9.41422 39.1654 19.9997 39.1654Z" fill="url(#paint0_linear_29229_1507)"/>
<path d="M18.3333 34.1667C21.555 34.1667 24.1667 31.555 24.1667 28.3333C24.1667 25.1117 21.555 22.5 18.3333 22.5C15.1117 22.5 12.5 25.1117 12.5 28.3333C12.5 31.555 15.1117 34.1667 18.3333 34.1667Z" fill="#B4CDE1"/>
<path d="M14.1667 14.9974C15.0871 14.9974 15.8333 14.2512 15.8333 13.3307C15.8333 12.4103 15.0871 11.6641 14.1667 11.6641C13.2462 11.6641 12.5 12.4103 12.5 13.3307C12.5 14.2512 13.2462 14.9974 14.1667 14.9974Z" fill="#B4CDE1"/>
<path d="M8.33268 24.1654C9.25316 24.1654 9.99935 23.4192 9.99935 22.4987C9.99935 21.5782 9.25316 20.832 8.33268 20.832C7.41221 20.832 6.66602 21.5782 6.66602 22.4987C6.66602 23.4192 7.41221 24.1654 8.33268 24.1654Z" fill="#B4CDE1"/>
<path d="M30.8327 27.4974C31.7532 27.4974 32.4993 26.7512 32.4993 25.8307C32.4993 24.9103 31.7532 24.1641 30.8327 24.1641C29.9122 24.1641 29.166 24.9103 29.166 25.8307C29.166 26.7512 29.9122 27.4974 30.8327 27.4974Z" fill="#B4CDE1"/>
<path d="M26.6667 17.4974C28.9679 17.4974 30.8333 15.6319 30.8333 13.3307C30.8333 11.0295 28.9679 9.16406 26.6667 9.16406C24.3655 9.16406 22.5 11.0295 22.5 13.3307C22.5 15.6319 24.3655 17.4974 26.6667 17.4974Z" fill="#B4CDE1"/>
<defs>
<linearGradient id="paint0_linear_29229_1507" x1="19.9997" y1="39.1654" x2="19.9997" y2="0.832031" gradientUnits="userSpaceOnUse">
<stop stop-color="#D3E6F5"/>
<stop offset="1" stop-color="#F0F7FC"/>
</linearGradient>
</defs>
</svg>
