<svg width="38" height="40" viewBox="0 0 38 40" fill="none" xmlns="http://www.w3.org/2000/svg">
<path d="M37.3331 17.4999C37.3331 19.9311 36.3673 22.2627 34.6482 23.9817C32.9291 25.7008 30.5976 26.6666 28.1664 26.6666H9.83307C7.50372 26.6657 5.26207 25.778 3.56357 24.184C1.86507 22.59 0.837129 20.4091 0.688592 18.0845C0.540054 15.7598 1.28206 13.4659 2.76387 11.6686C4.24567 9.87135 6.35611 8.70562 8.6664 8.40826C9.3585 6.2099 10.7337 4.28956 12.592 2.92635C14.4503 1.56315 16.695 0.828125 18.9997 0.828125C21.3045 0.828125 23.5491 1.56315 25.4075 2.92635C27.2658 4.28956 28.641 6.2099 29.3331 8.40826C31.544 8.69195 33.5757 9.7715 35.0482 11.4449C36.5207 13.1183 37.333 15.2709 37.3331 17.4999Z" fill="url(#paint0_linear_29229_1523)"/>
<path d="M22.3327 35.832C22.3327 33.9904 18.9993 30.832 18.9993 30.832C18.9993 30.832 15.666 33.9904 15.666 35.832C15.666 36.7161 16.0172 37.5639 16.6423 38.1891C17.2674 38.8142 18.1153 39.1654 18.9993 39.1654C19.8834 39.1654 20.7312 38.8142 21.3564 38.1891C21.9815 37.5639 22.3327 36.7161 22.3327 35.832Z" fill="url(#paint1_linear_29229_1523)"/>
<path d="M12.333 33.3346C12.333 31.9513 9.83301 29.168 9.83301 29.168C9.83301 29.168 7.33301 31.9513 7.33301 33.3346C7.33301 33.9977 7.5964 34.6336 8.06524 35.1024C8.53408 35.5712 9.16997 35.8346 9.83301 35.8346C10.496 35.8346 11.1319 35.5712 11.6008 35.1024C12.0696 34.6336 12.333 33.9977 12.333 33.3346Z" fill="url(#paint2_linear_29229_1523)"/>
<path d="M30.666 33.3346C30.666 31.9513 28.166 29.168 28.166 29.168C28.166 29.168 25.666 31.9513 25.666 33.3346C25.666 33.9977 25.9294 34.6336 26.3982 35.1024C26.8671 35.5712 27.503 35.8346 28.166 35.8346C28.8291 35.8346 29.4649 35.5712 29.9338 35.1024C30.4026 34.6336 30.666 33.9977 30.666 33.3346Z" fill="url(#paint3_linear_29229_1523)"/>
<path d="M14.8333 30.8346C15.2936 30.8346 15.6667 30.4615 15.6667 30.0013C15.6667 29.5411 15.2936 29.168 14.8333 29.168C14.3731 29.168 14 29.5411 14 30.0013C14 30.4615 14.3731 30.8346 14.8333 30.8346Z" fill="#8AD3FE"/>
<path d="M12.3333 39.1667C12.7936 39.1667 13.1667 38.7936 13.1667 38.3333C13.1667 37.8731 12.7936 37.5 12.3333 37.5C11.8731 37.5 11.5 37.8731 11.5 38.3333C11.5 38.7936 11.8731 39.1667 12.3333 39.1667Z" fill="#8AD3FE"/>
<path d="M25.6663 39.1667C26.1266 39.1667 26.4997 38.7936 26.4997 38.3333C26.4997 37.8731 26.1266 37.5 25.6663 37.5C25.2061 37.5 24.833 37.8731 24.833 38.3333C24.833 38.7936 25.2061 39.1667 25.6663 39.1667Z" fill="#8AD3FE"/>
<path d="M5.66634 29.9987C6.12658 29.9987 6.49967 29.6256 6.49967 29.1654C6.49967 28.7051 6.12658 28.332 5.66634 28.332C5.2061 28.332 4.83301 28.7051 4.83301 29.1654C4.83301 29.6256 5.2061 29.9987 5.66634 29.9987Z" fill="#8AD3FE"/>
<path d="M23.1663 30.8346C23.6266 30.8346 23.9997 30.4615 23.9997 30.0013C23.9997 29.5411 23.6266 29.168 23.1663 29.168C22.7061 29.168 22.333 29.5411 22.333 30.0013C22.333 30.4615 22.7061 30.8346 23.1663 30.8346Z" fill="#8AD3FE"/>
<path d="M33.1663 29.9987C33.6266 29.9987 33.9997 29.6256 33.9997 29.1654C33.9997 28.7051 33.6266 28.332 33.1663 28.332C32.7061 28.332 32.333 28.7051 32.333 29.1654C32.333 29.6256 32.7061 29.9987 33.1663 29.9987Z" fill="#8AD3FE"/>
<defs>
<linearGradient id="paint0_linear_29229_1523" x1="18.9997" y1="26.6666" x2="18.9997" y2="0.833256" gradientUnits="userSpaceOnUse">
<stop stop-color="#D3E6F5"/>
<stop offset="1" stop-color="#F0F7FC"/>
</linearGradient>
<linearGradient id="paint1_linear_29229_1523" x1="18.9993" y1="39.1654" x2="18.9993" y2="30.832" gradientUnits="userSpaceOnUse">
<stop stop-color="#54A5FF"/>
<stop offset="1" stop-color="#8AD3FE"/>
</linearGradient>
<linearGradient id="paint2_linear_29229_1523" x1="9.83301" y1="35.8346" x2="9.83301" y2="29.168" gradientUnits="userSpaceOnUse">
<stop stop-color="#54A5FF"/>
<stop offset="1" stop-color="#8AD3FE"/>
</linearGradient>
<linearGradient id="paint3_linear_29229_1523" x1="28.166" y1="35.8346" x2="28.166" y2="29.168" gradientUnits="userSpaceOnUse">
<stop stop-color="#54A5FF"/>
<stop offset="1" stop-color="#8AD3FE"/>
</linearGradient>
</defs>
</svg>
