<svg width="40" height="40" viewBox="0 0 40 40" fill="none" xmlns="http://www.w3.org/2000/svg">
<path d="M24.1663 30.8339C20.188 30.7234 16.4166 29.0371 13.6817 26.1459C10.9468 23.2547 9.47243 19.3955 9.58294 15.4172C9.69345 11.439 11.3798 7.66759 14.271 4.93269C17.1622 2.19778 21.0214 0.723411 24.9996 0.833918C19.3829 7.10892 23.6913 17.5006 32.4996 17.5006C34.9545 17.5205 37.3297 16.6298 39.1663 15.0006C39.2797 17.0394 38.9757 19.0799 38.2728 20.9971C37.57 22.9142 36.4831 24.6677 35.0787 26.1501C33.6744 27.6325 31.9822 28.8125 30.1057 29.6179C28.2293 30.4233 26.2082 30.8371 24.1663 30.8339Z" fill="#FCD240"/>
<path d="M32.4995 28.3358C32.4995 30.3249 31.7094 32.2325 30.3028 33.6391C28.8963 35.0456 26.9887 35.8358 24.9995 35.8358H8.33287C6.34375 35.901 4.4102 35.1733 2.95757 33.8129C1.50494 32.4525 0.652239 30.5707 0.58704 28.5816C0.521841 26.5925 1.24949 24.6589 2.60991 23.2063C3.97033 21.7537 5.85208 20.901 7.84121 20.8358C8.38187 18.9113 9.53676 17.2164 11.1299 16.0091C12.7231 14.8018 14.6673 14.1484 16.6662 14.1484C18.6651 14.1484 20.6093 14.8018 22.2025 16.0091C23.7957 17.2164 24.9505 18.9113 25.4912 20.8358C27.3939 20.9608 29.1776 21.8058 30.4794 23.199C31.7813 24.5922 32.5036 26.429 32.4995 28.3358Z" fill="url(#paint0_linear_29229_1444)"/>
<path d="M26.666 36.6667C26.666 35.2833 24.166 32.5 24.166 32.5C24.166 32.5 21.666 35.2833 21.666 36.6667C21.666 37.3297 21.9294 37.9656 22.3982 38.4344C22.8671 38.9033 23.503 39.1667 24.166 39.1667C24.8291 39.1667 25.4649 38.9033 25.9338 38.4344C26.4026 37.9656 26.666 37.3297 26.666 36.6667Z" fill="url(#paint1_linear_29229_1444)"/>
<path d="M19.166 36.6667C19.166 35.2833 16.666 32.5 16.666 32.5C16.666 32.5 14.166 35.2833 14.166 36.6667C14.166 37.3297 14.4294 37.9656 14.8982 38.4344C15.3671 38.9033 16.003 39.1667 16.666 39.1667C17.3291 39.1667 17.9649 38.9033 18.4338 38.4344C18.9026 37.9656 19.166 37.3297 19.166 36.6667Z" fill="url(#paint2_linear_29229_1444)"/>
<path d="M11.666 36.6667C11.666 35.2833 9.16602 32.5 9.16602 32.5C9.16602 32.5 6.66602 35.2833 6.66602 36.6667C6.66602 37.3297 6.92941 37.9656 7.39825 38.4344C7.86709 38.9033 8.50297 39.1667 9.16602 39.1667C9.82906 39.1667 10.4649 38.9033 10.9338 38.4344C11.4026 37.9656 11.666 37.3297 11.666 36.6667Z" fill="url(#paint3_linear_29229_1444)"/>
<defs>
<linearGradient id="paint0_linear_29229_1444" x1="16.6662" y1="35.8358" x2="16.6662" y2="14.1691" gradientUnits="userSpaceOnUse">
<stop stop-color="#D3E6F5"/>
<stop offset="1" stop-color="#F0F7FC"/>
</linearGradient>
<linearGradient id="paint1_linear_29229_1444" x1="24.166" y1="39.1667" x2="24.166" y2="32.5" gradientUnits="userSpaceOnUse">
<stop stop-color="#54A5FF"/>
<stop offset="1" stop-color="#8AD3FE"/>
</linearGradient>
<linearGradient id="paint2_linear_29229_1444" x1="16.666" y1="-1.54972e-06" x2="16.666" y2="-1.54972e-06" gradientUnits="userSpaceOnUse">
<stop stop-color="#54A5FF"/>
<stop offset="1" stop-color="#8AD3FE"/>
</linearGradient>
<linearGradient id="paint3_linear_29229_1444" x1="9.16602" y1="-1.54972e-06" x2="9.16602" y2="-1.54972e-06" gradientUnits="userSpaceOnUse">
<stop stop-color="#54A5FF"/>
<stop offset="1" stop-color="#8AD3FE"/>
</linearGradient>
</defs>
</svg>
