<svg width="40" height="40" viewBox="0 0 40 40" fill="none" xmlns="http://www.w3.org/2000/svg">
<path d="M10.0833 34.6904L9.16663 34.1654L10.0833 33.6404C10.2756 33.5299 10.4161 33.3475 10.4739 33.1334C10.5317 32.9193 10.5021 32.691 10.3916 32.4987C10.2811 32.3064 10.0988 32.1659 9.88466 32.1081C9.67055 32.0503 9.44225 32.0799 9.24997 32.1904L8.3333 32.7237V31.6654C8.3333 31.4444 8.2455 31.2324 8.08922 31.0761C7.93294 30.9198 7.72098 30.832 7.49997 30.832C7.27895 30.832 7.06699 30.9198 6.91071 31.0761C6.75443 31.2324 6.66663 31.4444 6.66663 31.6654V32.7237L5.74997 32.1904C5.65476 32.1356 5.54971 32.1002 5.4408 32.0861C5.3319 32.072 5.22129 32.0795 5.11528 32.1081C5.00926 32.1367 4.90993 32.1859 4.82294 32.253C4.73595 32.32 4.66302 32.4035 4.6083 32.4987C4.55358 32.5939 4.51815 32.699 4.50404 32.8079C4.48992 32.9168 4.49739 33.0274 4.52602 33.1334C4.55465 33.2394 4.60388 33.3387 4.67091 33.4257C4.73793 33.5127 4.82143 33.5856 4.91663 33.6404L5.8333 34.1654L4.91663 34.6904C4.7561 34.7813 4.63029 34.923 4.55895 35.0932C4.48761 35.2633 4.47476 35.4524 4.52242 35.6306C4.57008 35.8089 4.67556 35.9663 4.82231 36.0781C4.96906 36.19 5.14879 36.25 5.3333 36.2487C5.62497 36.2487 5.69163 36.1737 6.66663 35.607V36.6654C6.66663 36.8864 6.75443 37.0983 6.91071 37.2546C7.06699 37.4109 7.27895 37.4987 7.49997 37.4987C7.72098 37.4987 7.93294 37.4109 8.08922 37.2546C8.2455 37.0983 8.3333 36.8864 8.3333 36.6654V35.607C9.29163 36.157 9.36663 36.2487 9.66663 36.2487C9.85115 36.25 10.0309 36.19 10.1776 36.0781C10.3244 35.9663 10.4299 35.8089 10.4775 35.6306C10.5252 35.4524 10.5123 35.2633 10.441 35.0932C10.3696 34.923 10.2438 34.7813 10.0833 34.6904Z" fill="#8AD3FE"/>
<path d="M28.4163 34.6904L27.4996 34.1654L28.4163 33.6404C28.6086 33.5299 28.7491 33.3475 28.8069 33.1334C28.8647 32.9193 28.8351 32.691 28.7246 32.4987C28.6141 32.3064 28.4318 32.1659 28.2177 32.1081C28.0036 32.0503 27.7753 32.0799 27.583 32.1904L26.6663 32.7237V31.6654C26.6663 31.4444 26.5785 31.2324 26.4222 31.0761C26.266 30.9198 26.054 30.832 25.833 30.832C25.612 30.832 25.4 30.9198 25.2437 31.0761C25.0874 31.2324 24.9996 31.4444 24.9996 31.6654V32.7237L24.083 32.1904C23.9878 32.1356 23.8827 32.1002 23.7738 32.0861C23.6649 32.072 23.5543 32.0795 23.4483 32.1081C23.3423 32.1367 23.2429 32.1859 23.1559 32.253C23.069 32.32 22.996 32.4035 22.9413 32.4987C22.8866 32.5939 22.8512 32.699 22.837 32.8079C22.8229 32.9168 22.8304 33.0274 22.859 33.1334C22.8877 33.2394 22.9369 33.3387 23.0039 33.4257C23.0709 33.5127 23.1544 33.5856 23.2496 33.6404L24.1663 34.1654L23.2496 34.6904C23.0891 34.7813 22.9633 34.923 22.892 35.0932C22.8206 35.2633 22.8078 35.4524 22.8554 35.6306C22.9031 35.8089 23.0086 35.9663 23.1553 36.0781C23.3021 36.19 23.4818 36.25 23.6663 36.2487C23.958 36.2487 24.0246 36.1737 24.9996 35.607V36.6654C24.9996 36.8864 25.0874 37.0983 25.2437 37.2546C25.4 37.4109 25.612 37.4987 25.833 37.4987C26.054 37.4987 26.266 37.4109 26.4222 37.2546C26.5785 37.0983 26.6663 36.8864 26.6663 36.6654V35.607C27.6246 36.157 27.6996 36.2487 27.9996 36.2487C28.1842 36.25 28.3639 36.19 28.5106 36.0781C28.6574 35.9663 28.7629 35.8089 28.8105 35.6306C28.8582 35.4524 28.8453 35.2633 28.774 35.0932C28.7026 34.923 28.5768 34.7813 28.4163 34.6904Z" fill="#8AD3FE"/>
<path d="M19.2493 36.3583L18.3326 35.8333L19.2493 35.3083C19.3445 35.2536 19.428 35.1807 19.495 35.0937C19.5621 35.0067 19.6113 34.9074 19.6399 34.8014C19.6686 34.6953 19.676 34.5847 19.6619 34.4758C19.6478 34.3669 19.6124 34.2619 19.5576 34.1667C19.5029 34.0715 19.43 33.988 19.343 33.9209C19.256 33.8539 19.1567 33.8047 19.0507 33.7761C18.9447 33.7474 18.834 33.74 18.7251 33.7541C18.6162 33.7682 18.5112 33.8036 18.416 33.8583L17.4993 34.3917V33.3333C17.4993 33.1123 17.4115 32.9004 17.2552 32.7441C17.099 32.5878 16.887 32.5 16.666 32.5C16.445 32.5 16.233 32.5878 16.0767 32.7441C15.9204 32.9004 15.8326 33.1123 15.8326 33.3333V34.3917L14.916 33.8583C14.7237 33.7478 14.4954 33.7182 14.2813 33.7761C14.0672 33.8339 13.8848 33.9744 13.7743 34.1667C13.6638 34.3589 13.6342 34.5873 13.692 34.8014C13.7499 35.0155 13.8904 35.1978 14.0826 35.3083L14.9993 35.8333L14.0826 36.3583C13.9221 36.4493 13.7963 36.591 13.725 36.7611C13.6536 36.9313 13.6408 37.1204 13.6884 37.2986C13.7361 37.4769 13.8416 37.6343 13.9883 37.7461C14.1351 37.858 14.3148 37.918 14.4993 37.9167C14.791 37.9167 14.8576 37.8417 15.8326 37.275V38.3333C15.8326 38.5543 15.9204 38.7663 16.0767 38.9226C16.233 39.0789 16.445 39.1667 16.666 39.1667C16.887 39.1667 17.099 39.0789 17.2552 38.9226C17.4115 38.7663 17.4993 38.5543 17.4993 38.3333V37.275C18.4576 37.825 18.5326 37.9167 18.8326 37.9167C19.0172 37.918 19.1969 37.858 19.3436 37.7461C19.4904 37.6343 19.5959 37.4769 19.6435 37.2986C19.6912 37.1204 19.6783 36.9313 19.607 36.7611C19.5357 36.591 19.4099 36.4493 19.2493 36.3583Z" fill="#8AD3FE"/>
<path d="M30.8333 32.4987C31.2936 32.4987 31.6667 32.1256 31.6667 31.6654C31.6667 31.2051 31.2936 30.832 30.8333 30.832C30.3731 30.832 30 31.2051 30 31.6654C30 32.1256 30.3731 32.4987 30.8333 32.4987Z" fill="#8AD3FE"/>
<path d="M2.49935 32.4987C2.95959 32.4987 3.33268 32.1256 3.33268 31.6654C3.33268 31.2051 2.95959 30.832 2.49935 30.832C2.03911 30.832 1.66602 31.2051 1.66602 31.6654C1.66602 32.1256 2.03911 32.4987 2.49935 32.4987Z" fill="#8AD3FE"/>
<path d="M21.6663 39.1667C22.1266 39.1667 22.4997 38.7936 22.4997 38.3333C22.4997 37.8731 22.1266 37.5 21.6663 37.5C21.2061 37.5 20.833 37.8731 20.833 38.3333C20.833 38.7936 21.2061 39.1667 21.6663 39.1667Z" fill="#8AD3FE"/>
<path d="M11.6663 39.1667C12.1266 39.1667 12.4997 38.7936 12.4997 38.3333C12.4997 37.8731 12.1266 37.5 11.6663 37.5C11.2061 37.5 10.833 37.8731 10.833 38.3333C10.833 38.7936 11.2061 39.1667 11.6663 39.1667Z" fill="#8AD3FE"/>
<path d="M39.1659 11.6658C39.1659 13.2129 38.5513 14.6966 37.4573 15.7905C36.3634 16.8845 34.8796 17.4991 33.3325 17.4991H21.6659C20.1842 17.4838 18.7638 16.9053 17.6931 15.8809C16.6225 14.8565 15.9818 13.463 15.9012 11.9834C15.8206 10.5038 16.3061 9.04899 17.2591 7.91433C18.2121 6.77968 19.5612 6.05023 21.0325 5.87409C21.3938 4.43258 22.2264 3.1531 23.398 2.23889C24.5696 1.32467 26.0131 0.828125 27.4992 0.828125C28.9853 0.828125 30.4288 1.32467 31.6004 2.23889C32.772 3.1531 33.6046 4.43258 33.9659 5.87409C35.3936 6.03002 36.7136 6.70716 37.6731 7.77583C38.6326 8.84449 39.1641 10.2296 39.1659 11.6658Z" fill="url(#paint0_linear_29229_1535)"/>
<path d="M32.4995 21.6639C32.4995 23.653 31.7094 25.5607 30.3028 26.9672C28.8963 28.3737 26.9887 29.1639 24.9995 29.1639H8.33287C6.34375 29.2291 4.4102 28.5014 2.95757 27.141C1.50494 25.7806 0.652239 23.8988 0.58704 21.9097C0.521841 19.9206 1.24949 17.987 2.60991 16.5344C3.97033 15.0818 5.85208 14.2291 7.84121 14.1639C8.38187 12.2395 9.53676 10.5445 11.1299 9.33724C12.7231 8.12997 14.6673 7.47656 16.6662 7.47656C18.6651 7.47656 20.6093 8.12997 22.2025 9.33724C23.7957 10.5445 24.9505 12.2395 25.4912 14.1639C27.3939 14.2889 29.1776 15.1339 30.4794 16.5271C31.7813 17.9203 32.5036 19.7571 32.4995 21.6639Z" fill="url(#paint1_linear_29229_1535)"/>
<defs>
<linearGradient id="paint0_linear_29229_1535" x1="27.4992" y1="17.4991" x2="27.4992" y2="0.832426" gradientUnits="userSpaceOnUse">
<stop stop-color="#D3E6F5"/>
<stop offset="1" stop-color="#F0F7FC"/>
</linearGradient>
<linearGradient id="paint1_linear_29229_1535" x1="16.6662" y1="29.1639" x2="16.6662" y2="7.49722" gradientUnits="userSpaceOnUse">
<stop stop-color="#D3E6F5"/>
<stop offset="1" stop-color="#F0F7FC"/>
</linearGradient>
</defs>
</svg>
