<svg width="40" height="40" viewBox="0 0 40 40" fill="none" xmlns="http://www.w3.org/2000/svg">
<path d="M39.1663 19.9987C38.3621 19.5443 37.6565 18.9342 37.0908 18.2039C36.5251 17.4737 36.1107 16.638 35.8717 15.7457C35.6327 14.8534 35.574 13.9225 35.699 13.0072C35.824 12.092 36.1302 11.2109 36.5997 10.4154C35.6758 10.4243 34.7593 10.2489 33.904 9.89939C33.0487 9.54993 32.2716 9.03342 31.6183 8.38008C30.965 7.72674 30.4484 6.94968 30.099 6.09436C29.7495 5.23904 29.5741 4.32262 29.583 3.3987C28.7875 3.86818 27.9064 4.17437 26.9911 4.29936C26.0759 4.42436 25.1449 4.36565 24.2527 4.12668C23.3604 3.8877 22.5247 3.47325 21.7945 2.90756C21.0642 2.34186 20.4541 1.63627 19.9997 0.832031C19.5453 1.63627 18.9351 2.34186 18.2049 2.90756C17.4747 3.47325 16.639 3.8877 15.7467 4.12668C14.8544 4.36565 13.9234 4.42436 13.0082 4.29936C12.093 4.17437 11.2119 3.86818 10.4163 3.3987C10.4252 4.32262 10.2498 5.23904 9.90037 6.09436C9.5509 6.94968 9.0344 7.72674 8.38106 8.38008C7.72772 9.03342 6.95066 9.54993 6.09534 9.89939C5.24001 10.2489 4.32359 10.4243 3.39967 10.4154C3.86916 11.2109 4.17534 12.092 4.30034 13.0072C4.42533 13.9225 4.36663 14.8534 4.12765 15.7457C3.88868 16.638 3.47423 17.4737 2.90853 18.2039C2.34284 18.9342 1.63725 19.5443 0.833008 19.9987C1.63725 20.4531 2.34284 21.0632 2.90853 21.7935C3.47423 22.5237 3.88868 23.3594 4.12765 24.2517C4.36663 25.144 4.42533 26.0749 4.30034 26.9902C4.17534 27.9054 3.86916 28.7865 3.39967 29.582C4.32359 29.5731 5.24001 29.7485 6.09534 30.098C6.95066 30.4475 7.72772 30.964 8.38106 31.6173C9.0344 32.2707 9.5509 33.0477 9.90037 33.903C10.2498 34.7584 10.4252 35.6748 10.4163 36.5987C11.2119 36.1292 12.093 35.823 13.0082 35.698C13.9234 35.573 14.8544 35.6317 15.7467 35.8707C16.639 36.1097 17.4747 36.5241 18.2049 37.0898C18.9351 37.6555 19.5453 38.3611 19.9997 39.1654C20.4541 38.3611 21.0642 37.6555 21.7945 37.0898C22.5247 36.5241 23.3604 36.1097 24.2527 35.8707C25.1449 35.6317 26.0759 35.573 26.9911 35.698C27.9064 35.823 28.7875 36.1292 29.583 36.5987C29.5741 35.6748 29.7495 34.7584 30.099 33.903C30.4484 33.0477 30.965 32.2707 31.6183 31.6173C32.2716 30.964 33.0487 30.4475 33.904 30.098C34.7593 29.7485 35.6758 29.5731 36.5997 29.582C36.1302 28.7865 35.824 27.9054 35.699 26.9902C35.574 26.0749 35.6327 25.144 35.8717 24.2517C36.1107 23.3594 36.5251 22.5237 37.0908 21.7935C37.6565 21.0632 38.3621 20.4531 39.1663 19.9987Z" fill="#FCD240"/>
<path d="M20 32.5C26.9036 32.5 32.5 26.9036 32.5 20C32.5 13.0964 26.9036 7.5 20 7.5C13.0964 7.5 7.5 13.0964 7.5 20C7.5 26.9036 13.0964 32.5 20 32.5Z" fill="#FEE98C"/>
</svg>
