<svg width="40" height="36" viewBox="0 0 40 36" fill="none" xmlns="http://www.w3.org/2000/svg">
<path d="M39.1667 16.3333C38.4854 15.975 37.8857 15.4796 37.405 14.8783C36.9244 14.2771 36.5733 13.5829 36.3737 12.8395C36.1741 12.0961 36.1305 11.3194 36.2454 10.5583C36.3604 9.79714 36.6315 9.06801 37.0417 8.41667C36.2698 8.45183 35.4991 8.32642 34.7782 8.04835C34.0573 7.77029 33.402 7.34564 32.8537 6.80126C32.3054 6.25688 31.8761 5.60462 31.5929 4.88576C31.3096 4.1669 31.1787 3.39708 31.2083 2.625C30.5585 3.02826 29.8328 3.29373 29.0761 3.40493C28.3195 3.51614 27.5481 3.47071 26.8097 3.27147C26.0713 3.07223 25.3818 2.72342 24.7838 2.24667C24.1858 1.76993 23.6921 1.17542 23.3333 0.5C22.975 1.18124 22.4796 1.78101 21.8783 2.26165C21.2771 2.74229 20.5829 3.09341 19.8395 3.29297C19.0961 3.49252 18.3194 3.5362 17.5583 3.42125C16.7971 3.3063 16.068 3.0352 15.4167 2.625C15.4518 3.39684 15.3264 4.16758 15.0484 4.88846C14.7703 5.60933 14.3456 6.26465 13.8013 6.81294C13.2569 7.36124 12.6046 7.79058 11.8858 8.0738C11.1669 8.35703 10.3971 8.48796 9.625 8.45833C10.0283 9.10815 10.2937 9.83389 10.4049 10.5905C10.5161 11.3472 10.4707 12.1186 10.2715 12.857C10.0722 13.5954 9.72342 14.2849 9.24667 14.8829C8.76993 15.4809 8.17542 15.9746 7.5 16.3333C8.18124 16.6917 8.78101 17.1871 9.26165 17.7883C9.74229 18.3896 10.0934 19.0837 10.293 19.8272C10.4925 20.5706 10.5362 21.3473 10.4212 22.1084C10.3063 22.8695 10.0352 23.5987 9.625 24.25C10.4005 24.2144 11.1749 24.341 11.8987 24.6215C12.6226 24.9021 13.2799 25.3305 13.8289 25.8795C14.3778 26.4284 14.8062 27.0858 15.0868 27.8096C15.3674 28.5334 15.4939 29.3078 15.4583 30.0833C16.1056 29.6785 16.829 29.4107 17.5839 29.2965C18.3387 29.1823 19.109 29.2241 19.8471 29.4193C20.5851 29.6146 21.2753 29.9591 21.8749 30.4317C22.4746 30.9042 22.9709 31.4947 23.3333 32.1667C23.6917 31.4854 24.1871 30.8857 24.7883 30.405C25.3896 29.9244 26.0837 29.5733 26.8272 29.3737C27.5706 29.1741 28.3473 29.1305 29.1084 29.2454C29.8695 29.3604 30.5987 29.6315 31.25 30.0417C31.2144 29.2662 31.341 28.4918 31.6215 27.7679C31.9021 27.0441 32.3305 26.3867 32.8795 25.8378C33.4284 25.2889 34.0858 24.8604 34.8096 24.5799C35.5334 24.2993 36.3078 24.1728 37.0833 24.2083C36.6785 23.5611 36.4107 22.8376 36.2965 22.0828C36.1823 21.3279 36.2241 20.5577 36.4193 19.8196C36.6146 19.0815 36.9591 18.3914 37.4317 17.7917C37.9042 17.1921 38.4947 16.6957 39.1667 16.3333Z" fill="#FCD240"/>
<path d="M23.3327 25.5013C28.3953 25.5013 32.4993 21.3972 32.4993 16.3346C32.4993 11.272 28.3953 7.16797 23.3327 7.16797C18.2701 7.16797 14.166 11.272 14.166 16.3346C14.166 21.3972 18.2701 25.5013 23.3327 25.5013Z" fill="#FEE98C"/>
<path d="M32.4995 27.9998C32.4995 29.9889 31.7094 31.8966 30.3028 33.3031C28.8963 34.7096 26.9887 35.4998 24.9995 35.4998H8.33287C6.34375 35.565 4.4102 34.8374 2.95757 33.477C1.50494 32.1165 0.652239 30.2348 0.58704 28.2457C0.521841 26.2565 1.24949 24.323 2.60991 22.8704C3.97033 21.4177 5.85208 20.565 7.84121 20.4998C8.38187 18.5754 9.53676 16.8804 11.1299 15.6732C12.7231 14.4659 14.6673 13.8125 16.6662 13.8125C18.6651 13.8125 20.6093 14.4659 22.2025 15.6732C23.7957 16.8804 24.9505 18.5754 25.4912 20.4998C27.3939 20.6248 29.1776 21.4698 30.4794 22.863C31.7813 24.2563 32.5036 26.093 32.4995 27.9998Z" fill="url(#paint0_linear_29229_1550)"/>
<defs>
<linearGradient id="paint0_linear_29229_1550" x1="16.6662" y1="35.4998" x2="16.6662" y2="13.8332" gradientUnits="userSpaceOnUse">
<stop stop-color="#D3E6F5"/>
<stop offset="1" stop-color="#F0F7FC"/>
</linearGradient>
</defs>
</svg>
