<svg width="39" height="40" viewBox="0 0 39 40" fill="none" xmlns="http://www.w3.org/2000/svg">
<path d="M37.5 18.332C36.6979 17.989 35.9842 17.4681 35.4129 16.8088C34.8415 16.1495 34.4275 15.3691 34.2019 14.5263C33.9764 13.6836 33.9453 12.8006 34.111 11.9441C34.2767 11.0876 34.6348 10.2799 35.1583 9.58203C34.2919 9.68525 33.4134 9.59051 32.5889 9.30495C31.7644 9.0194 31.0155 8.55048 30.3985 7.9335C29.7816 7.31653 29.3126 6.5676 29.0271 5.74311C28.7415 4.91863 28.6468 4.0401 28.75 3.1737C28.0522 3.69723 27.2445 4.05536 26.388 4.22104C25.5314 4.38672 24.6485 4.35562 23.8057 4.13009C22.963 3.90455 22.1825 3.49048 21.5232 2.91915C20.8639 2.34781 20.3431 1.63414 20 0.832031C19.6569 1.63414 19.1361 2.34781 18.4768 2.91915C17.8175 3.49048 17.037 3.90455 16.1943 4.13009C15.3515 4.35562 14.4686 4.38672 13.612 4.22104C12.7555 4.05536 11.9478 3.69723 11.25 3.1737C11.3532 4.0401 11.2585 4.91863 10.9729 5.74311C10.6874 6.5676 10.2184 7.31653 9.60147 7.9335C8.9845 8.55048 8.23557 9.0194 7.41108 9.30495C6.5866 9.59051 5.70807 9.68525 4.84167 9.58203C5.3652 10.2799 5.72333 11.0876 5.88901 11.9441C6.05469 12.8006 6.02359 13.6836 5.79806 14.5263C5.57252 15.3691 5.15845 16.1495 4.58711 16.8088C4.01578 17.4681 3.30211 17.989 2.5 18.332C3.30211 18.6751 4.01578 19.196 4.58711 19.8552C5.15845 20.5145 5.57252 21.295 5.79806 22.1377C6.02359 22.9805 6.05469 23.8635 5.88901 24.72C5.72333 25.5765 5.3652 26.3842 4.84167 27.082C5.70807 26.9788 6.5866 27.0736 7.41108 27.3591C8.23557 27.6447 8.9845 28.1136 9.60147 28.7306C10.2184 29.3475 10.6874 30.0965 10.9729 30.9209C11.2585 31.7454 11.3532 32.624 11.25 33.4904C11.9478 32.9668 12.7555 32.6087 13.612 32.443C14.4686 32.2773 15.3515 32.3084 16.1943 32.534C17.037 32.7595 17.8175 33.1736 18.4768 33.7449C19.1361 34.3163 19.6569 35.0299 20 35.832C20.3431 35.0299 20.8639 34.3163 21.5232 33.7449C22.1825 33.1736 22.963 32.7595 23.8057 32.534C24.6485 32.3084 25.5314 32.2773 26.388 32.443C27.2445 32.6087 28.0522 32.9668 28.75 33.4904C28.6468 32.624 28.7415 31.7454 29.0271 30.9209C29.3126 30.0965 29.7816 29.3475 30.3985 28.7306C31.0155 28.1136 31.7644 27.6447 32.5889 27.3591C33.4134 27.0736 34.2919 26.9788 35.1583 27.082C34.6348 26.3842 34.2767 25.5765 34.111 24.72C33.9453 23.8635 33.9764 22.9805 34.2019 22.1377C34.4275 21.295 34.8415 20.5145 35.4129 19.8552C35.9842 19.196 36.6979 18.6751 37.5 18.332Z" fill="#FCD240"/>
<path d="M20 28.332C25.5228 28.332 30 23.8549 30 18.332C30 12.8092 25.5228 8.33203 20 8.33203C14.4772 8.33203 10 12.8092 10 18.332C10 23.8549 14.4772 28.332 20 28.332Z" fill="#FEE98C"/>
<path d="M38.3329 13.3324C38.3329 14.4375 37.8939 15.4973 37.1125 16.2787C36.3311 17.0601 35.2713 17.4991 34.1662 17.4991H25.8329C25.2857 17.51 24.7417 17.4131 24.232 17.2138C23.7223 17.0145 23.2568 16.7168 22.8622 16.3376C22.4675 15.9584 22.1514 15.5052 21.9319 15.0039C21.7124 14.5026 21.5938 13.9629 21.5829 13.4157C21.5719 12.8685 21.6689 12.3246 21.8681 11.8149C22.0674 11.3051 22.3652 10.8397 22.7443 10.445C23.5101 9.648 24.5611 9.18782 25.6662 9.16572C26.1046 8.40412 26.736 7.77151 27.4968 7.33164C28.2575 6.89176 29.1208 6.66016 29.9995 6.66016C30.8783 6.66016 31.7416 6.89176 32.5023 7.33164C33.2631 7.77151 33.8945 8.40412 34.3329 9.16572C35.4088 9.20879 36.4263 9.66672 37.172 10.4435C37.9177 11.2203 38.3337 12.2556 38.3329 13.3324Z" fill="url(#paint0_linear_29229_1430)"/>
<path d="M17.4999 35.0004C17.4999 36.1054 17.0609 37.1652 16.2795 37.9466C15.4981 38.728 14.4383 39.167 13.3332 39.167H4.99986C3.89479 39.1891 2.8262 38.7713 2.02917 38.0056C1.23214 37.2398 0.771959 36.1888 0.749858 35.0837C0.727756 33.9786 1.14555 32.91 1.91132 32.113C2.67709 31.316 3.72812 30.8558 4.83319 30.8337C5.2716 30.0721 5.90299 29.4395 6.66375 28.9996C7.4245 28.5597 8.28775 28.3281 9.16652 28.3281C10.0453 28.3281 10.9085 28.5597 11.6693 28.9996C12.4301 29.4395 13.0615 30.0721 13.4999 30.8337C14.5758 30.8768 15.5933 31.3347 16.339 32.1115C17.0847 32.8883 17.5007 33.9236 17.4999 35.0004Z" fill="url(#paint1_linear_29229_1430)"/>
<defs>
<linearGradient id="paint0_linear_29229_1430" x1="29.9995" y1="17.4991" x2="29.9995" y2="6.66572" gradientUnits="userSpaceOnUse">
<stop stop-color="#D3E6F5"/>
<stop offset="1" stop-color="#F0F7FC"/>
</linearGradient>
<linearGradient id="paint1_linear_29229_1430" x1="9.16652" y1="39.167" x2="9.16652" y2="28.3337" gradientUnits="userSpaceOnUse">
<stop stop-color="#D3E6F5"/>
<stop offset="1" stop-color="#F0F7FC"/>
</linearGradient>
</defs>
</svg>
