<svg width="40" height="30" viewBox="0 0 40 30" fill="none" xmlns="http://www.w3.org/2000/svg">
<path d="M37.5 18.332H2.5C3.30323 17.9902 4.01809 17.47 4.59039 16.8109C5.16268 16.1517 5.57738 15.3709 5.80306 14.5277C6.02873 13.6844 6.05944 12.8008 5.89287 11.9439C5.7263 11.0871 5.36681 10.2793 4.84167 9.58203C5.7084 9.6869 6.58764 9.59332 7.41289 9.30835C8.23813 9.02338 8.98777 8.55449 9.60512 7.93715C10.2225 7.3198 10.6914 6.57016 10.9763 5.74492C11.2613 4.91967 11.3549 4.04044 11.25 3.1737C11.9473 3.69884 12.755 4.05833 13.6119 4.2249C14.4688 4.39147 15.3524 4.36076 16.1956 4.13509C17.0389 3.90942 17.8197 3.49471 18.4788 2.92242C19.138 2.35012 19.6582 1.63526 20 0.832031C20.3418 1.63526 20.862 2.35012 21.5212 2.92242C22.1803 3.49471 22.9611 3.90942 23.8044 4.13509C24.6476 4.36076 25.5312 4.39147 26.3881 4.2249C27.245 4.05833 28.0527 3.69884 28.75 3.1737C28.6451 4.04044 28.7387 4.91967 29.0237 5.74492C29.3086 6.57016 29.7775 7.3198 30.3949 7.93715C31.0122 8.55449 31.7619 9.02338 32.5871 9.30835C33.4124 9.59332 34.2916 9.6869 35.1583 9.58203C34.6348 10.2799 34.2767 11.0876 34.111 11.9441C33.9453 12.8006 33.9764 13.6836 34.2019 14.5263C34.4275 15.3691 34.8415 16.1495 35.4129 16.8088C35.9842 17.4681 36.6979 17.989 37.5 18.332Z" fill="#FCD240"/>
<path d="M30 18.332H10C10 15.6799 11.0536 13.1363 12.9289 11.261C14.8043 9.3856 17.3478 8.33203 20 8.33203C22.6522 8.33203 25.1957 9.3856 27.0711 11.261C28.9464 13.1363 30 15.6799 30 18.332Z" fill="#FEE98C"/>
<path d="M38.333 19.1667H1.66634C1.44533 19.1667 1.23337 19.0789 1.07709 18.9226C0.920805 18.7663 0.833008 18.5543 0.833008 18.3333C0.833008 18.1123 0.920805 17.9004 1.07709 17.7441C1.23337 17.5878 1.44533 17.5 1.66634 17.5H38.333C38.554 17.5 38.766 17.5878 38.9223 17.7441C39.0785 17.9004 39.1663 18.1123 39.1663 18.3333C39.1663 18.5543 39.0785 18.7663 38.9223 18.9226C38.766 19.0789 38.554 19.1667 38.333 19.1667Z" fill="url(#paint0_linear_29229_1436)"/>
<path d="M17.5 24.1667H3.33333C3.11232 24.1667 2.90036 24.0789 2.74408 23.9226C2.5878 23.7663 2.5 23.5543 2.5 23.3333C2.5 23.1123 2.5878 22.9004 2.74408 22.7441C2.90036 22.5878 3.11232 22.5 3.33333 22.5H17.5C17.721 22.5 17.933 22.5878 18.0893 22.7441C18.2455 22.9004 18.3333 23.1123 18.3333 23.3333C18.3333 23.5543 18.2455 23.7663 18.0893 23.9226C17.933 24.0789 17.721 24.1667 17.5 24.1667Z" fill="url(#paint1_linear_29229_1436)"/>
<path d="M27.4993 29.1667H12.4993C12.2783 29.1667 12.0664 29.0789 11.9101 28.9226C11.7538 28.7663 11.666 28.5543 11.666 28.3333C11.666 28.1123 11.7538 27.9004 11.9101 27.7441C12.0664 27.5878 12.2783 27.5 12.4993 27.5H27.4993C27.7204 27.5 27.9323 27.5878 28.0886 27.7441C28.2449 27.9004 28.3327 28.1123 28.3327 28.3333C28.3327 28.5543 28.2449 28.7663 28.0886 28.9226C27.9323 29.0789 27.7204 29.1667 27.4993 29.1667Z" fill="url(#paint2_linear_29229_1436)"/>
<path d="M36.666 24.1667H22.4993C22.2783 24.1667 22.0664 24.0789 21.9101 23.9226C21.7538 23.7663 21.666 23.5543 21.666 23.3333C21.666 23.1123 21.7538 22.9004 21.9101 22.7441C22.0664 22.5878 22.2783 22.5 22.4993 22.5H36.666C36.887 22.5 37.099 22.5878 37.2553 22.7441C37.4116 22.9004 37.4993 23.1123 37.4993 23.3333C37.4993 23.5543 37.4116 23.7663 37.2553 23.9226C37.099 24.0789 36.887 24.1667 36.666 24.1667Z" fill="url(#paint3_linear_29229_1436)"/>
<defs>
<linearGradient id="paint0_linear_29229_1436" x1="0.833008" y1="18.3333" x2="39.1663" y2="18.3333" gradientUnits="userSpaceOnUse">
<stop stop-color="#54A5FF"/>
<stop offset="1" stop-color="#8AD3FE"/>
</linearGradient>
<linearGradient id="paint1_linear_29229_1436" x1="2.5" y1="23.3333" x2="18.3333" y2="23.3333" gradientUnits="userSpaceOnUse">
<stop stop-color="#54A5FF"/>
<stop offset="1" stop-color="#8AD3FE"/>
</linearGradient>
<linearGradient id="paint2_linear_29229_1436" x1="11.666" y1="28.3333" x2="28.3327" y2="28.3333" gradientUnits="userSpaceOnUse">
<stop stop-color="#54A5FF"/>
<stop offset="1" stop-color="#8AD3FE"/>
</linearGradient>
<linearGradient id="paint3_linear_29229_1436" x1="21.666" y1="23.3333" x2="37.4993" y2="23.3333" gradientUnits="userSpaceOnUse">
<stop stop-color="#54A5FF"/>
<stop offset="1" stop-color="#8AD3FE"/>
</linearGradient>
</defs>
</svg>
