<svg width="38" height="40" viewBox="0 0 38 40" fill="none" xmlns="http://www.w3.org/2000/svg">
<path d="M8.99967 22.5H15.6663L13.9997 29.1667H17.333L9.83301 39.1667V31.6667H7.33301L8.99967 22.5Z" fill="#FCD240"/>
<path d="M22.3327 22.5H28.9993L27.3327 29.1667H30.666L23.166 39.1667V31.6667H20.666L22.3327 22.5Z" fill="#FCD240"/>
<path d="M37.3331 17.4999C37.3331 19.9311 36.3673 22.2627 34.6482 23.9817C32.9291 25.7008 30.5976 26.6666 28.1664 26.6666H9.83307C7.50372 26.6657 5.26207 25.778 3.56357 24.184C1.86507 22.59 0.837129 20.4091 0.688592 18.0845C0.540054 15.7598 1.28206 13.4659 2.76387 11.6686C4.24567 9.87135 6.35611 8.70562 8.6664 8.40826C9.3585 6.2099 10.7337 4.28956 12.592 2.92635C14.4503 1.56315 16.695 0.828125 18.9997 0.828125C21.3045 0.828125 23.5491 1.56315 25.4075 2.92635C27.2658 4.28956 28.641 6.2099 29.3331 8.40826C31.544 8.69195 33.5757 9.7715 35.0482 11.4449C36.5207 13.1183 37.333 15.2709 37.3331 17.4999Z" fill="url(#paint0_linear_29229_1451)"/>
<defs>
<linearGradient id="paint0_linear_29229_1451" x1="18.9997" y1="26.6666" x2="18.9997" y2="0.833256" gradientUnits="userSpaceOnUse">
<stop stop-color="#D3E6F5"/>
<stop offset="1" stop-color="#F0F7FC"/>
</linearGradient>
</defs>
</svg>
