<svg width="40" height="40" viewBox="0 0 40 40" fill="none" xmlns="http://www.w3.org/2000/svg">
<path d="M24.1663 30.8339C20.188 30.7234 16.4166 29.0371 13.6817 26.1459C10.9468 23.2547 9.47243 19.3955 9.58294 15.4172C9.69345 11.439 11.3798 7.66759 14.271 4.93269C17.1622 2.19778 21.0214 0.723411 24.9996 0.833918C19.3829 7.10892 23.6913 17.5006 32.4996 17.5006C34.9545 17.5205 37.3297 16.6298 39.1663 15.0006C39.2797 17.0394 38.9757 19.0799 38.2728 20.9971C37.57 22.9142 36.4831 24.6677 35.0787 26.1501C33.6744 27.6325 31.9822 28.8125 30.1057 29.6179C28.2293 30.4233 26.2082 30.8371 24.1663 30.8339Z" fill="#FCD240"/>
<path d="M32.4995 28.3358C32.4995 30.3249 31.7094 32.2325 30.3028 33.6391C28.8963 35.0456 26.9887 35.8358 24.9995 35.8358H8.33287C6.34375 35.901 4.4102 35.1733 2.95757 33.8129C1.50494 32.4525 0.652239 30.5707 0.58704 28.5816C0.521841 26.5925 1.24949 24.6589 2.60991 23.2063C3.97033 21.7537 5.85208 20.901 7.84121 20.8358C8.38187 18.9113 9.53676 17.2164 11.1299 16.0091C12.7231 14.8018 14.6673 14.1484 16.6662 14.1484C18.6651 14.1484 20.6093 14.8018 22.2025 16.0091C23.7957 17.2164 24.9505 18.9113 25.4912 20.8358C27.3939 20.9608 29.1776 21.8058 30.4794 23.199C31.7813 24.5922 32.5036 26.429 32.4995 28.3358Z" fill="url(#paint0_linear_29229_1476)"/>
<path d="M9.99967 33.332H1.66634C1.44533 33.332 1.23337 33.2442 1.07709 33.088C0.920805 32.9317 0.833008 32.7197 0.833008 32.4987C0.833008 32.2777 0.920805 32.0657 1.07709 31.9094C1.23337 31.7532 1.44533 31.6654 1.66634 31.6654H9.99967C10.2207 31.6654 10.4326 31.5776 10.5889 31.4213C10.7452 31.265 10.833 31.053 10.833 30.832C10.833 30.611 10.7452 30.3991 10.5889 30.2428C10.4326 30.0865 10.2207 29.9987 9.99967 29.9987H8.33301C8.11199 29.9987 7.90003 29.9109 7.74375 29.7546C7.58747 29.5983 7.49967 29.3864 7.49967 29.1654C7.49967 28.9444 7.58747 28.7324 7.74375 28.5761C7.90003 28.4198 8.11199 28.332 8.33301 28.332H9.99967C10.6627 28.332 11.2986 28.5954 11.7674 29.0643C12.2363 29.5331 12.4997 30.169 12.4997 30.832C12.4997 31.4951 12.2363 32.131 11.7674 32.5998C11.2986 33.0686 10.6627 33.332 9.99967 33.332Z" fill="#54A5FF"/>
<path d="M23.3327 39.168H22.4993C22.2783 39.168 22.0664 39.0802 21.9101 38.9239C21.7538 38.7676 21.666 38.5556 21.666 38.3346C21.666 38.1136 21.7538 37.9017 21.9101 37.7454C22.0664 37.5891 22.2783 37.5013 22.4993 37.5013H23.3327C23.5537 37.5013 23.7657 37.4135 23.9219 37.2572C24.0782 37.1009 24.166 36.889 24.166 36.668C24.166 36.447 24.0782 36.235 23.9219 36.0787C23.7657 35.9224 23.5537 35.8346 23.3327 35.8346H17.4993C17.2783 35.8346 17.0664 35.7468 16.9101 35.5906C16.7538 35.4343 16.666 35.2223 16.666 35.0013C16.666 34.7803 16.7538 34.5683 16.9101 34.412C17.0664 34.2558 17.2783 34.168 17.4993 34.168H23.3327C23.9957 34.168 24.6316 34.4314 25.1004 34.9002C25.5693 35.369 25.8327 36.0049 25.8327 36.668C25.8327 37.331 25.5693 37.9669 25.1004 38.4357C24.6316 38.9046 23.9957 39.168 23.3327 39.168Z" fill="#54A5FF"/>
<path d="M14.166 38.3346H9.99935C9.77834 38.3346 9.56637 38.2468 9.41009 38.0906C9.25381 37.9343 9.16602 37.7223 9.16602 37.5013C9.16602 37.2803 9.25381 37.0683 9.41009 36.912C9.56637 36.7558 9.77834 36.668 9.99935 36.668H14.166C14.387 36.668 14.599 36.7558 14.7553 36.912C14.9116 37.0683 14.9993 37.2803 14.9993 37.5013C14.9993 37.7223 14.9116 37.9343 14.7553 38.0906C14.599 38.2468 14.387 38.3346 14.166 38.3346Z" fill="#54A5FF"/>
<path d="M18.333 31.6667H16.6663C16.4453 31.6667 16.2334 31.5789 16.0771 31.4226C15.9208 31.2663 15.833 31.0543 15.833 30.8333C15.833 30.6123 15.9208 30.4004 16.0771 30.2441C16.2334 30.0878 16.4453 30 16.6663 30H18.333C18.554 30 18.766 30.0878 18.9223 30.2441C19.0785 30.4004 19.1663 30.6123 19.1663 30.8333C19.1663 31.0543 19.0785 31.2663 18.9223 31.4226C18.766 31.5789 18.554 31.6667 18.333 31.6667Z" fill="#54A5FF"/>
<defs>
<linearGradient id="paint0_linear_29229_1476" x1="16.6662" y1="35.8358" x2="16.6662" y2="14.1691" gradientUnits="userSpaceOnUse">
<stop stop-color="#D3E6F5"/>
<stop offset="1" stop-color="#F0F7FC"/>
</linearGradient>
</defs>
</svg>
