<svg width="40" height="40" viewBox="0 0 40 40" fill="none" xmlns="http://www.w3.org/2000/svg">
<path d="M39.1667 15.8333C38.4854 15.475 37.8857 14.9796 37.405 14.3783C36.9244 13.7771 36.5733 13.0829 36.3737 12.3395C36.1741 11.5961 36.1305 10.8194 36.2454 10.0583C36.3604 9.29714 36.6315 8.56801 37.0417 7.91667C36.2698 7.95183 35.4991 7.82642 34.7782 7.54835C34.0573 7.27029 33.402 6.84564 32.8537 6.30126C32.3054 5.75688 31.8761 5.10462 31.5929 4.38576C31.3096 3.6669 31.1787 2.89708 31.2083 2.125C30.5585 2.52826 29.8328 2.79373 29.0761 2.90493C28.3195 3.01614 27.5481 2.97071 26.8097 2.77147C26.0713 2.57223 25.3818 2.22342 24.7838 1.74667C24.1858 1.26993 23.6921 0.675416 23.3333 0C22.975 0.681237 22.4796 1.28101 21.8783 1.76165C21.2771 2.24229 20.5829 2.59341 19.8395 2.79297C19.0961 2.99252 18.3194 3.0362 17.5583 2.92125C16.7971 2.8063 16.068 2.5352 15.4167 2.125C15.4518 2.89684 15.3264 3.66758 15.0484 4.38846C14.7703 5.10933 14.3456 5.76465 13.8013 6.31294C13.2569 6.86124 12.6046 7.29058 11.8858 7.5738C11.1669 7.85703 10.3971 7.98796 9.625 7.95833C10.0283 8.60815 10.2937 9.33389 10.4049 10.0905C10.5161 10.8472 10.4707 11.6186 10.2715 12.357C10.0722 13.0954 9.72342 13.7849 9.24667 14.3829C8.76993 14.9809 8.17542 15.4746 7.5 15.8333C8.18124 16.1917 8.78101 16.6871 9.26165 17.2883C9.74229 17.8896 10.0934 18.5837 10.293 19.3272C10.4925 20.0706 10.5362 20.8473 10.4212 21.6084C10.3063 22.3695 10.0352 23.0987 9.625 23.75C10.4005 23.7144 11.1749 23.841 11.8987 24.1215C12.6226 24.4021 13.2799 24.8305 13.8289 25.3795C14.3778 25.9284 14.8062 26.5858 15.0868 27.3096C15.3674 28.0334 15.4939 28.8078 15.4583 29.5833C16.1056 29.1785 16.829 28.9107 17.5839 28.7965C18.3387 28.6823 19.109 28.7241 19.8471 28.9193C20.5851 29.1146 21.2753 29.4591 21.8749 29.9317C22.4746 30.4042 22.9709 30.9947 23.3333 31.6667C23.6917 30.9854 24.1871 30.3857 24.7883 29.905C25.3896 29.4244 26.0837 29.0733 26.8272 28.8737C27.5706 28.6741 28.3473 28.6305 29.1084 28.7454C29.8695 28.8604 30.5987 29.1315 31.25 29.5417C31.2144 28.7662 31.341 27.9918 31.6215 27.2679C31.9021 26.5441 32.3305 25.8867 32.8795 25.3378C33.4284 24.7889 34.0858 24.3604 34.8096 24.0799C35.5334 23.7993 36.3078 23.6728 37.0833 23.7083C36.6785 23.0611 36.4107 22.3376 36.2965 21.5828C36.1823 20.8279 36.2241 20.0577 36.4193 19.3196C36.6146 18.5815 36.9591 17.8914 37.4317 17.2917C37.9042 16.6921 38.4947 16.1957 39.1667 15.8333Z" fill="#FCD240"/>
<path d="M23.3327 25.0013C28.3953 25.0013 32.4993 20.8972 32.4993 15.8346C32.4993 10.772 28.3953 6.66797 23.3327 6.66797C18.2701 6.66797 14.166 10.772 14.166 15.8346C14.166 20.8972 18.2701 25.0013 23.3327 25.0013Z" fill="#FEE98C"/>
<path d="M32.4995 27.4998C32.4995 29.4889 31.7094 31.3966 30.3028 32.8031C28.8963 34.2096 26.9887 34.9998 24.9995 34.9998H8.33287C6.34375 35.065 4.4102 34.3374 2.95757 32.977C1.50494 31.6165 0.652239 29.7348 0.58704 27.7457C0.521841 25.7565 1.24949 23.823 2.60991 22.3704C3.97033 20.9177 5.85208 20.065 7.84121 19.9998C8.38187 18.0754 9.53676 16.3804 11.1299 15.1732C12.7231 13.9659 14.6673 13.3125 16.6662 13.3125C18.6651 13.3125 20.6093 13.9659 22.2025 15.1732C23.7957 16.3804 24.9505 18.0754 25.4912 19.9998C27.3939 20.1248 29.1776 20.9698 30.4794 22.363C31.7813 23.7563 32.5036 25.593 32.4995 27.4998Z" fill="url(#paint0_linear_29229_1467)"/>
<path d="M9.99967 33.332H1.66634C1.44533 33.332 1.23337 33.2442 1.07709 33.088C0.920805 32.9317 0.833008 32.7197 0.833008 32.4987C0.833008 32.2777 0.920805 32.0657 1.07709 31.9094C1.23337 31.7532 1.44533 31.6654 1.66634 31.6654H9.99967C10.2207 31.6654 10.4326 31.5776 10.5889 31.4213C10.7452 31.265 10.833 31.053 10.833 30.832C10.833 30.611 10.7452 30.3991 10.5889 30.2428C10.4326 30.0865 10.2207 29.9987 9.99967 29.9987H8.33301C8.11199 29.9987 7.90003 29.9109 7.74375 29.7546C7.58747 29.5983 7.49967 29.3864 7.49967 29.1654C7.49967 28.9444 7.58747 28.7324 7.74375 28.5761C7.90003 28.4198 8.11199 28.332 8.33301 28.332H9.99967C10.6627 28.332 11.2986 28.5954 11.7674 29.0643C12.2363 29.5331 12.4997 30.169 12.4997 30.832C12.4997 31.4951 12.2363 32.131 11.7674 32.5998C11.2986 33.0686 10.6627 33.332 9.99967 33.332Z" fill="#54A5FF"/>
<path d="M23.3327 39.168H22.4993C22.2783 39.168 22.0664 39.0802 21.9101 38.9239C21.7538 38.7676 21.666 38.5556 21.666 38.3346C21.666 38.1136 21.7538 37.9017 21.9101 37.7454C22.0664 37.5891 22.2783 37.5013 22.4993 37.5013H23.3327C23.5537 37.5013 23.7657 37.4135 23.9219 37.2572C24.0782 37.1009 24.166 36.889 24.166 36.668C24.166 36.447 24.0782 36.235 23.9219 36.0787C23.7657 35.9224 23.5537 35.8346 23.3327 35.8346H17.4993C17.2783 35.8346 17.0664 35.7468 16.9101 35.5906C16.7538 35.4343 16.666 35.2223 16.666 35.0013C16.666 34.7803 16.7538 34.5683 16.9101 34.412C17.0664 34.2558 17.2783 34.168 17.4993 34.168H23.3327C23.9957 34.168 24.6316 34.4314 25.1004 34.9002C25.5693 35.369 25.8327 36.0049 25.8327 36.668C25.8327 37.331 25.5693 37.9669 25.1004 38.4357C24.6316 38.9046 23.9957 39.168 23.3327 39.168Z" fill="#54A5FF"/>
<path d="M14.166 38.3346H9.99935C9.77834 38.3346 9.56637 38.2468 9.41009 38.0906C9.25381 37.9343 9.16602 37.7223 9.16602 37.5013C9.16602 37.2803 9.25381 37.0683 9.41009 36.912C9.56637 36.7558 9.77834 36.668 9.99935 36.668H14.166C14.387 36.668 14.599 36.7558 14.7553 36.912C14.9116 37.0683 14.9993 37.2803 14.9993 37.5013C14.9993 37.7223 14.9116 37.9343 14.7553 38.0906C14.599 38.2468 14.387 38.3346 14.166 38.3346Z" fill="#54A5FF"/>
<path d="M18.333 31.6667H16.6663C16.4453 31.6667 16.2334 31.5789 16.0771 31.4226C15.9208 31.2663 15.833 31.0543 15.833 30.8333C15.833 30.6123 15.9208 30.4004 16.0771 30.2441C16.2334 30.0878 16.4453 30 16.6663 30H18.333C18.554 30 18.766 30.0878 18.9223 30.2441C19.0785 30.4004 19.1663 30.6123 19.1663 30.8333C19.1663 31.0543 19.0785 31.2663 18.9223 31.4226C18.766 31.5789 18.554 31.6667 18.333 31.6667Z" fill="#54A5FF"/>
<defs>
<linearGradient id="paint0_linear_29229_1467" x1="16.6662" y1="34.9998" x2="16.6662" y2="13.3332" gradientUnits="userSpaceOnUse">
<stop stop-color="#D3E6F5"/>
<stop offset="1" stop-color="#F0F7FC"/>
</linearGradient>
</defs>
</svg>
