<svg width="40" height="36" viewBox="0 0 40 36" fill="none" xmlns="http://www.w3.org/2000/svg">
<path d="M39.1661 17.1679C39.1661 19.599 38.2003 21.9306 36.4812 23.6497C34.7621 25.3688 32.4306 26.3346 29.9994 26.3346H11.6661C9.33673 26.3337 7.09508 25.446 5.39658 23.852C3.69808 22.2579 2.67014 20.077 2.5216 17.7524C2.37306 15.4278 3.11507 13.1338 4.59687 11.3366C6.07868 9.53932 8.18912 8.37358 10.4994 8.07622C11.1915 5.87787 12.5667 3.95753 14.425 2.59432C16.2834 1.23112 18.528 0.496094 20.8327 0.496094C23.1375 0.496094 25.3821 1.23112 27.2405 2.59432C29.0988 3.95753 30.474 5.87787 31.1661 8.07622C33.377 8.35992 35.4087 9.43947 36.8812 11.1129C38.3537 12.7863 39.166 14.9389 39.1661 17.1679Z" fill="url(#paint0_linear_29229_1564)"/>
<path d="M14.9997 24.6667H1.66634C1.44533 24.6667 1.23337 24.5789 1.07709 24.4226C0.920805 24.2663 0.833008 24.0543 0.833008 23.8333C0.833008 23.6123 0.920805 23.4004 1.07709 23.2441C1.23337 23.0878 1.44533 23 1.66634 23H14.9997C15.4417 23 15.8656 22.8244 16.1782 22.5118C16.4907 22.1993 16.6663 21.7754 16.6663 21.3333C16.6663 20.8913 16.4907 20.4674 16.1782 20.1548C15.8656 19.8423 15.4417 19.6667 14.9997 19.6667H12.4997C12.2787 19.6667 12.0667 19.5789 11.9104 19.4226C11.7541 19.2663 11.6663 19.0543 11.6663 18.8333C11.6663 18.6123 11.7541 18.4004 11.9104 18.2441C12.0667 18.0878 12.2787 18 12.4997 18H14.9997C15.8837 18 16.7316 18.3512 17.3567 18.9763C17.9818 19.6014 18.333 20.4493 18.333 21.3333C18.333 22.2174 17.9818 23.0652 17.3567 23.6904C16.7316 24.3155 15.8837 24.6667 14.9997 24.6667Z" fill="#54A5FF"/>
<path d="M16.6663 35.5026H14.1663C13.9453 35.5026 13.7334 35.4148 13.5771 35.2585C13.4208 35.1022 13.333 34.8903 13.333 34.6693C13.333 34.4483 13.4208 34.2363 13.5771 34.08C13.7334 33.9237 13.9453 33.8359 14.1663 33.8359H16.6663C17.1084 33.8359 17.5323 33.6603 17.8449 33.3478C18.1574 33.0352 18.333 32.6113 18.333 32.1693C18.333 31.7272 18.1574 31.3033 17.8449 30.9908C17.5323 30.6782 17.1084 30.5026 16.6663 30.5026H9.16634C8.94533 30.5026 8.73337 30.4148 8.57709 30.2585C8.42081 30.1022 8.33301 29.8903 8.33301 29.6693C8.33301 29.4483 8.42081 29.2363 8.57709 29.08C8.73337 28.9237 8.94533 28.8359 9.16634 28.8359H16.6663C17.5504 28.8359 18.3982 29.1871 19.0234 29.8122C19.6485 30.4374 19.9997 31.2852 19.9997 32.1693C19.9997 33.0533 19.6485 33.9012 19.0234 34.5263C18.3982 35.1514 17.5504 35.5026 16.6663 35.5026Z" fill="#54A5FF"/>
<path d="M32.4993 34.6667H29.9993C29.7783 34.6667 29.5664 34.5789 29.4101 34.4226C29.2538 34.2663 29.166 34.0543 29.166 33.8333C29.166 33.6123 29.2538 33.4004 29.4101 33.2441C29.5664 33.0878 29.7783 33 29.9993 33H32.4993C32.9414 33 33.3653 32.8244 33.6779 32.5118C33.9904 32.1993 34.166 31.7754 34.166 31.3333C34.166 30.8913 33.9904 30.4674 33.6779 30.1548C33.3653 29.8423 32.9414 29.6667 32.4993 29.6667H24.9993C24.7783 29.6667 24.5664 29.5789 24.4101 29.4226C24.2538 29.2663 24.166 29.0543 24.166 28.8333C24.166 28.6123 24.2538 28.4004 24.4101 28.2441C24.5664 28.0878 24.7783 28 24.9993 28H32.4993C33.3834 28 34.2312 28.3512 34.8564 28.9763C35.4815 29.6014 35.8327 30.4493 35.8327 31.3333C35.8327 32.2174 35.4815 33.0652 34.8564 33.6904C34.2312 34.3155 33.3834 34.6667 32.4993 34.6667Z" fill="#54A5FF"/>
<path d="M28.3333 22.1667H23.3333C23.1123 22.1667 22.9004 22.0789 22.7441 21.9226C22.5878 21.7663 22.5 21.5543 22.5 21.3333C22.5 21.1123 22.5878 20.9004 22.7441 20.7441C22.9004 20.5878 23.1123 20.5 23.3333 20.5H28.3333C28.5543 20.5 28.7663 20.5878 28.9226 20.7441C29.0789 20.9004 29.1667 21.1123 29.1667 21.3333C29.1667 21.5543 29.0789 21.7663 28.9226 21.9226C28.7663 22.0789 28.5543 22.1667 28.3333 22.1667Z" fill="#54A5FF"/>
<path d="M5.83301 30.5026H4.16634C3.94533 30.5026 3.73337 30.4148 3.57709 30.2585C3.42081 30.1022 3.33301 29.8903 3.33301 29.6693C3.33301 29.4483 3.42081 29.2363 3.57709 29.08C3.73337 28.9237 3.94533 28.8359 4.16634 28.8359H5.83301C6.05402 28.8359 6.26598 28.9237 6.42226 29.08C6.57854 29.2363 6.66634 29.4483 6.66634 29.6693C6.66634 29.8903 6.57854 30.1022 6.42226 30.2585C6.26598 30.4148 6.05402 30.5026 5.83301 30.5026Z" fill="#54A5FF"/>
<path d="M26.666 33.0026H24.9993C24.7783 33.0026 24.5664 32.9148 24.4101 32.7585C24.2538 32.6022 24.166 32.3903 24.166 32.1693C24.166 31.9483 24.2538 31.7363 24.4101 31.58C24.5664 31.4237 24.7783 31.3359 24.9993 31.3359H26.666C26.887 31.3359 27.099 31.4237 27.2553 31.58C27.4116 31.7363 27.4993 31.9483 27.4993 32.1693C27.4993 32.3903 27.4116 32.6022 27.2553 32.7585C27.099 32.9148 26.887 33.0026 26.666 33.0026Z" fill="#54A5FF"/>
<defs>
<linearGradient id="paint0_linear_29229_1564" x1="20.8327" y1="26.3346" x2="20.8327" y2="0.501224" gradientUnits="userSpaceOnUse">
<stop stop-color="#D3E6F5"/>
<stop offset="1" stop-color="#F0F7FC"/>
</linearGradient>
</defs>
</svg>
